<svg xmlns="http://www.w3.org/2000/svg" width="1366" height="801" viewBox="0 0 1366 801">
  <g id="Group_43887" data-name="Group 43887" transform="translate(0 0)">
    <path id="Path_2" data-name="Path 2" d="M0-92.574H1363.321L1366,440.492s-41.592,46.916-77.936,78.089-47.339,36.627-76.519,52.533-57.743,26.266-113.361,41.174-71.559,14.908-109.11,18.457-102.733,2.84-155.871,0-74.393-4.259-141.7-12.778-98.128-17.392-126.468-24.492-64.474-23.782-138.513-23.782-119.029,14.2-158.705,26.976-94.586,28.11-161.539,56.082S0,708.426,0,708.426Z" transform="translate(0 92.574)" fill="#ecb7bf" opacity="0.3"/>
    <path id="Path_1" data-name="Path 1" d="M0-2.062H1366V539.81a523.917,523.917,0,0,1-61.27,62.1c-36.415,31.165-53.89,46.429-83.127,62.331s-78.667,30.94-127.288,44.151-72.061,15.179-129.886,15.534-111.6-7.291-161.059-15.534-105.9-20.308-141.035-29.534-73.829-26.97-115.714-42.584S466.4,613.208,421.68,607.885,345.7,601.478,266.212,611.7s-92.667,17.521-159.727,40.9S0,708.771,0,708.771Z" transform="translate(0 2.062)" fill="#ecb7bf"/>
  </g>
</svg>
