<svg id="cart" xmlns="http://www.w3.org/2000/svg" width="25" height="25" viewBox="0 0 25 25">
  <path id="Path_2068" data-name="Path 2068" d="M253.3,230.832l.4,5.941h3.17l.4-5.941Zm0,0" transform="translate(-240.812 -219.595)" fill="#c99200"/>
  <path id="Path_2069" data-name="Path 2069" d="M243.266,80.332l.4,5.941h4.16l.4-5.941Zm0,0" transform="translate(-231.272 -76.421)" fill="#c99200"/>
  <path id="Path_2070" data-name="Path 2070" d="M365.734,86.277h6.524l.419-3.141a2.43,2.43,0,0,0-2.452-2.8h-4.1Zm0,0" transform="translate(-347.701 -76.425)" fill="#c99200"/>
  <path id="Path_2071" data-name="Path 2071" d="M101.066,239.255H86.147a1.587,1.587,0,0,1-1.509-1.321l-.155-1.16h5.066l-.4-5.941H82.2l.973,7.3a2.992,2.992,0,0,0,1.013,1.845,3.058,3.058,0,0,0,1.419.706,2.721,2.721,0,1,0,4.811.054H94.29a2.72,2.72,0,1,0,4.838,0h1.938a.74.74,0,0,0,0-1.479Zm0,0" transform="translate(-78.146 -219.695)" fill="#c99200"/>
  <path id="Path_2072" data-name="Path 2072" d="M2.909,2.8l.947,7.1h7.052l-.4-5.941H4.555L4.375,2.6A2.743,2.743,0,0,0,2.06,0H.739a.74.74,0,0,0,0,1.479H2.06c.237,0,.74.5.849,1.321Zm0,0" transform="translate(0 0)" fill="#c99200"/>
  <path id="Path_2073" data-name="Path 2073" d="M356.1,230.832l-.4,5.941h3.4a3.07,3.07,0,0,0,2.975-2.6l.445-3.336Zm0,0" transform="translate(-338.165 -219.595)" fill="#c99200"/>
</svg>
