<svg xmlns="http://www.w3.org/2000/svg" width="319.461" height="260.936" viewBox="0 0 319.461 260.936">
  <g id="circle" transform="translate(1.461 1.461)">
    <path id="Stroke_1" data-name="Stroke 1" d="M0,0V2.712" transform="translate(8.682 118.336)" fill="none" stroke="#d2d8df" stroke-linecap="round" stroke-miterlimit="10" stroke-width="2.921"/>
    <g id="Group_8" data-name="Group 8" transform="translate(0 119.801)">
      <path id="Stroke_2" data-name="Stroke 2" d="M0,0,2.216,2.281" transform="translate(2.591 0)" fill="none" stroke="#d2d8df" stroke-linecap="round" stroke-miterlimit="10" stroke-width="2.921"/>
      <path id="Stroke_4" data-name="Stroke 4" d="M0,0H3.133" transform="translate(0 6.072)" fill="none" stroke="#d2d8df" stroke-linecap="round" stroke-miterlimit="10" stroke-width="2.921"/>
      <path id="Stroke_6" data-name="Stroke 6" d="M0,2.281,2.216,0" transform="translate(2.338 9.972)" fill="none" stroke="#d2d8df" stroke-linecap="round" stroke-miterlimit="10" stroke-width="2.921"/>
    </g>
    <path id="Stroke_9" data-name="Stroke 9" d="M0,2.712V0" transform="translate(8.682 130.079)" fill="none" stroke="#d2d8df" stroke-linecap="round" stroke-miterlimit="10" stroke-width="2.921"/>
    <path id="Stroke_10" data-name="Stroke 10" d="M1.808,1.808,0,0" transform="translate(11.394 129.176)" fill="none" stroke="#d2d8df" stroke-linecap="round" stroke-miterlimit="10" stroke-width="2.921"/>
    <path id="Stroke_11" data-name="Stroke 11" d="M2.712,0H0" transform="translate(14.106 126.467)" fill="none" stroke="#d2d8df" stroke-linecap="round" stroke-miterlimit="10" stroke-width="2.921"/>
    <path id="Stroke_12" data-name="Stroke 12" d="M1.808,0,0,1.808" transform="translate(13.202 120.143)" fill="none" stroke="#d2d8df" stroke-linecap="round" stroke-miterlimit="10" stroke-width="2.921"/>
    <path id="Stroke_13" data-name="Stroke 13" d="M0,0V1.808" transform="translate(154.337)" fill="none" stroke="#d2d8df" stroke-linecap="round" stroke-miterlimit="10" stroke-width="2.921"/>
    <path id="Stroke_15" data-name="Stroke 15" d="M0,0H1.808" transform="translate(148.909 5.424)" fill="none" stroke="#d2d8df" stroke-linecap="round" stroke-miterlimit="10" stroke-width="2.921"/>
    <path id="Stroke_16" data-name="Stroke 16" d="M0,1.808V0" transform="translate(154.337 9.039)" fill="none" stroke="#d2d8df" stroke-linecap="round" stroke-miterlimit="10" stroke-width="2.921"/>
    <path id="Stroke_17" data-name="Stroke 17" d="M1.808,0H0" transform="translate(157.051 5.424)" fill="none" stroke="#d2d8df" stroke-linecap="round" stroke-miterlimit="10" stroke-width="2.921"/>
    <path id="Stroke_18" data-name="Stroke 18" d="M0,0V2.712" transform="translate(49.359 75.88)" fill="none" stroke="#d2d8df" stroke-linecap="round" stroke-miterlimit="10" stroke-width="2.921"/>
    <path id="Stroke_19" data-name="Stroke 19" d="M0,0H2.712" transform="translate(41.224 84.01)" fill="none" stroke="#d2d8df" stroke-linecap="round" stroke-miterlimit="10" stroke-width="2.921"/>
    <path id="Stroke_20" data-name="Stroke 20" d="M0,2.712V0" transform="translate(49.359 88.526)" fill="none" stroke="#d2d8df" stroke-linecap="round" stroke-miterlimit="10" stroke-width="2.921"/>
    <path id="Stroke_21" data-name="Stroke 21" d="M2.712,0H0" transform="translate(53.879 84.01)" fill="none" stroke="#d2d8df" stroke-linecap="round" stroke-miterlimit="10" stroke-width="2.921"/>
    <g id="Group_42" data-name="Group 42" transform="translate(23.392 25.016)">
      <path id="Stroke_22" data-name="Stroke 22" d="M3.912,0A3.913,3.913,0,1,1,0,3.913" transform="translate(216.819 149.364)" fill="none" stroke="#d2d8df" stroke-linecap="round" stroke-miterlimit="10" stroke-width="2.921"/>
      <path id="Stroke_24" data-name="Stroke 24" d="M12.278,5.233A6.17,6.17,0,1,1,5.295,0" transform="translate(226.323 195.517)" fill="none" stroke="#d2d8df" stroke-linecap="round" stroke-miterlimit="10" stroke-width="2.921"/>
      <path id="Fill_26" data-name="Fill 26" d="M0,6.622C2.323,5.9,5.884,3.057,6.708,0c.747,2.7,3.881,5.9,6.708,6.139-3.182,1.127-6.225,4.474-6.708,7.1C6.379,10.563,2.171,7.013,0,6.622" transform="translate(238.697 107.27)" fill="#ebecee"/>
      <path id="Fill_28" data-name="Fill 28" d="M0,3.311A5.7,5.7,0,0,0,3.354,0,4.584,4.584,0,0,0,6.707,3.07,5.576,5.576,0,0,0,3.354,6.621C3.189,5.281,1.085,3.506,0,3.311" transform="translate(0 144.852)" fill="#ebecee"/>
      <path id="Fill_30" data-name="Fill 30" d="M6.067,3.034A3.034,3.034,0,1,1,3.034,0,3.034,3.034,0,0,1,6.067,3.034" transform="translate(15.494 19.494)" fill="#d1d8df"/>
      <path id="Fill_32" data-name="Fill 32" d="M10.141,5.072A5.071,5.071,0,1,1,5.071,0a5.071,5.071,0,0,1,5.07,5.072" transform="translate(190.729 207.799)" fill="#ebecee"/>
      <path id="Fill_34" data-name="Fill 34" d="M8.043,4.023A4.022,4.022,0,1,1,4.022,0,4.022,4.022,0,0,1,8.043,4.023" transform="translate(286.565 12.912)" fill="#ebecee"/>
      <path id="Stroke_36" data-name="Stroke 36" d="M5.07,2.536A2.535,2.535,0,1,1,2.535,0,2.536,2.536,0,0,1,5.07,2.536Z" transform="translate(73.248 202.117)" fill="none" stroke="#d2d8df" stroke-linecap="round" stroke-miterlimit="10" stroke-width="2.921"/>
      <path id="Stroke_38" data-name="Stroke 38" d="M6.067,3.034A3.034,3.034,0,1,1,3.034,0,3.034,3.034,0,0,1,6.067,3.034Z" transform="translate(70.74 0)" fill="none" stroke="#d2d8df" stroke-linecap="round" stroke-miterlimit="10" stroke-width="2.921"/>
      <path id="Stroke_40" data-name="Stroke 40" d="M5.092,7.268A3.756,3.756,0,1,1,7.266,2.421,3.756,3.756,0,0,1,5.092,7.268Z" transform="translate(149.164 225.469)" fill="none" stroke="#d2d8df" stroke-linecap="round" stroke-miterlimit="10" stroke-width="2.921"/>
    </g>
  </g>
</svg>
