<svg xmlns="http://www.w3.org/2000/svg" width="19" height="16" viewBox="0 0 19 16">
  <path id="email" d="M2.591,16A2.632,2.632,0,0,1,0,13.334V2.676c0-.009,0-.018,0-.026A2.632,2.632,0,0,1,2.591,0H16.409A2.632,2.632,0,0,1,19,2.649c0,.009,0,.017,0,.026V13.334A2.632,2.632,0,0,1,16.409,16Zm-.864-2.666a.877.877,0,0,0,.864.889H16.409a.877.877,0,0,0,.864-.889V4.374L10,9.618a.842.842,0,0,1-.99,0L1.727,4.374ZM9.5,7.8,17.182,2.27a.862.862,0,0,0-.773-.492H2.591a.862.862,0,0,0-.773.492Z" fill="#c99200"/>
</svg>
