<svg xmlns="http://www.w3.org/2000/svg" width="319.46" height="260.936" viewBox="0 0 319.46 260.936">
  <g id="empty-cart" transform="translate(-3.935 1.46)">
    <g id="circle" transform="translate(5.395)">
      <path id="Stroke_1" data-name="Stroke 1" d="M0,0V2.712" transform="translate(8.682 118.336)" fill="none" stroke="#d2d8df" stroke-linecap="round" stroke-miterlimit="10" stroke-width="2.921"/>
      <g id="Group_8" data-name="Group 8" transform="translate(0 119.801)">
        <path id="Stroke_2" data-name="Stroke 2" d="M0,0,2.216,2.281" transform="translate(2.591 0)" fill="none" stroke="#d2d8df" stroke-linecap="round" stroke-miterlimit="10" stroke-width="2.921"/>
        <path id="Stroke_4" data-name="Stroke 4" d="M0,0H3.133" transform="translate(0 6.072)" fill="none" stroke="#d2d8df" stroke-linecap="round" stroke-miterlimit="10" stroke-width="2.921"/>
        <path id="Stroke_6" data-name="Stroke 6" d="M0,2.281,2.216,0" transform="translate(2.338 9.972)" fill="none" stroke="#d2d8df" stroke-linecap="round" stroke-miterlimit="10" stroke-width="2.921"/>
      </g>
      <path id="Stroke_9" data-name="Stroke 9" d="M0,2.712V0" transform="translate(8.682 130.079)" fill="none" stroke="#d2d8df" stroke-linecap="round" stroke-miterlimit="10" stroke-width="2.921"/>
      <path id="Stroke_10" data-name="Stroke 10" d="M1.808,1.808,0,0" transform="translate(11.394 129.176)" fill="none" stroke="#d2d8df" stroke-linecap="round" stroke-miterlimit="10" stroke-width="2.921"/>
      <path id="Stroke_11" data-name="Stroke 11" d="M2.712,0H0" transform="translate(14.106 126.467)" fill="none" stroke="#d2d8df" stroke-linecap="round" stroke-miterlimit="10" stroke-width="2.921"/>
      <path id="Stroke_12" data-name="Stroke 12" d="M1.808,0,0,1.808" transform="translate(13.202 120.143)" fill="none" stroke="#d2d8df" stroke-linecap="round" stroke-miterlimit="10" stroke-width="2.921"/>
      <path id="Stroke_13" data-name="Stroke 13" d="M0,0V1.808" transform="translate(154.337)" fill="none" stroke="#d2d8df" stroke-linecap="round" stroke-miterlimit="10" stroke-width="2.921"/>
      <path id="Stroke_15" data-name="Stroke 15" d="M0,0H1.808" transform="translate(148.909 5.424)" fill="none" stroke="#d2d8df" stroke-linecap="round" stroke-miterlimit="10" stroke-width="2.921"/>
      <path id="Stroke_16" data-name="Stroke 16" d="M0,1.808V0" transform="translate(154.337 9.039)" fill="none" stroke="#d2d8df" stroke-linecap="round" stroke-miterlimit="10" stroke-width="2.921"/>
      <path id="Stroke_17" data-name="Stroke 17" d="M1.808,0H0" transform="translate(157.051 5.424)" fill="none" stroke="#d2d8df" stroke-linecap="round" stroke-miterlimit="10" stroke-width="2.921"/>
      <path id="Stroke_18" data-name="Stroke 18" d="M0,0V2.712" transform="translate(49.359 75.88)" fill="none" stroke="#d2d8df" stroke-linecap="round" stroke-miterlimit="10" stroke-width="2.921"/>
      <path id="Stroke_19" data-name="Stroke 19" d="M0,0H2.712" transform="translate(41.224 84.01)" fill="none" stroke="#d2d8df" stroke-linecap="round" stroke-miterlimit="10" stroke-width="2.921"/>
      <path id="Stroke_20" data-name="Stroke 20" d="M0,2.712V0" transform="translate(49.359 88.526)" fill="none" stroke="#d2d8df" stroke-linecap="round" stroke-miterlimit="10" stroke-width="2.921"/>
      <path id="Stroke_21" data-name="Stroke 21" d="M2.712,0H0" transform="translate(53.879 84.01)" fill="none" stroke="#d2d8df" stroke-linecap="round" stroke-miterlimit="10" stroke-width="2.921"/>
      <g id="Group_42" data-name="Group 42" transform="translate(23.392 25.016)">
        <path id="Stroke_22" data-name="Stroke 22" d="M3.912,0A3.913,3.913,0,1,1,0,3.913" transform="translate(216.819 149.364)" fill="none" stroke="#d2d8df" stroke-linecap="round" stroke-miterlimit="10" stroke-width="2.921"/>
        <path id="Stroke_24" data-name="Stroke 24" d="M12.278,5.233A6.17,6.17,0,1,1,5.295,0" transform="translate(226.323 195.517)" fill="none" stroke="#d2d8df" stroke-linecap="round" stroke-miterlimit="10" stroke-width="2.921"/>
        <path id="Fill_26" data-name="Fill 26" d="M0,6.622C2.323,5.9,5.884,3.057,6.708,0c.747,2.7,3.881,5.9,6.708,6.139-3.182,1.127-6.225,4.474-6.708,7.1C6.379,10.563,2.171,7.013,0,6.622" transform="translate(238.697 107.27)" fill="#ebecee"/>
        <path id="Fill_28" data-name="Fill 28" d="M0,3.311A5.7,5.7,0,0,0,3.354,0,4.584,4.584,0,0,0,6.707,3.07,5.576,5.576,0,0,0,3.354,6.621C3.189,5.281,1.085,3.506,0,3.311" transform="translate(0 144.852)" fill="#ebecee"/>
        <path id="Fill_30" data-name="Fill 30" d="M6.067,3.034A3.034,3.034,0,1,1,3.034,0,3.034,3.034,0,0,1,6.067,3.034" transform="translate(15.494 19.494)" fill="#d1d8df"/>
        <path id="Fill_32" data-name="Fill 32" d="M10.141,5.072A5.071,5.071,0,1,1,5.071,0a5.071,5.071,0,0,1,5.07,5.072" transform="translate(190.729 207.799)" fill="#ebecee"/>
        <path id="Fill_34" data-name="Fill 34" d="M8.043,4.023A4.022,4.022,0,1,1,4.022,0,4.022,4.022,0,0,1,8.043,4.023" transform="translate(286.565 12.912)" fill="#ebecee"/>
        <path id="Stroke_36" data-name="Stroke 36" d="M5.07,2.536A2.535,2.535,0,1,1,2.535,0,2.536,2.536,0,0,1,5.07,2.536Z" transform="translate(73.248 202.117)" fill="none" stroke="#d2d8df" stroke-linecap="round" stroke-miterlimit="10" stroke-width="2.921"/>
        <path id="Stroke_38" data-name="Stroke 38" d="M6.067,3.034A3.034,3.034,0,1,1,3.034,0,3.034,3.034,0,0,1,6.067,3.034Z" transform="translate(70.74 0)" fill="none" stroke="#d2d8df" stroke-linecap="round" stroke-miterlimit="10" stroke-width="2.921"/>
        <path id="Stroke_40" data-name="Stroke 40" d="M5.092,7.268A3.756,3.756,0,1,1,7.266,2.421,3.756,3.756,0,0,1,5.092,7.268Z" transform="translate(149.164 225.469)" fill="none" stroke="#d2d8df" stroke-linecap="round" stroke-miterlimit="10" stroke-width="2.921"/>
      </g>
    </g>
    <g id="circle-2" data-name="circle" transform="translate(5.395)">
      <path id="Stroke_1-2" data-name="Stroke 1" d="M0,0V2.712" transform="translate(8.682 118.336)" fill="none" stroke="#d2d8df" stroke-linecap="round" stroke-miterlimit="10" stroke-width="2.921"/>
      <g id="Group_8-2" data-name="Group 8" transform="translate(0 119.801)">
        <path id="Stroke_2-2" data-name="Stroke 2" d="M0,0,2.216,2.281" transform="translate(2.591 0)" fill="none" stroke="#d2d8df" stroke-linecap="round" stroke-miterlimit="10" stroke-width="2.921"/>
        <path id="Stroke_4-2" data-name="Stroke 4" d="M0,0H3.133" transform="translate(0 6.072)" fill="none" stroke="#d2d8df" stroke-linecap="round" stroke-miterlimit="10" stroke-width="2.921"/>
        <path id="Stroke_6-2" data-name="Stroke 6" d="M0,2.281,2.216,0" transform="translate(2.338 9.972)" fill="none" stroke="#d2d8df" stroke-linecap="round" stroke-miterlimit="10" stroke-width="2.921"/>
      </g>
      <path id="Stroke_9-2" data-name="Stroke 9" d="M0,2.712V0" transform="translate(8.682 130.079)" fill="none" stroke="#d2d8df" stroke-linecap="round" stroke-miterlimit="10" stroke-width="2.921"/>
      <path id="Stroke_10-2" data-name="Stroke 10" d="M1.808,1.808,0,0" transform="translate(11.394 129.176)" fill="none" stroke="#d2d8df" stroke-linecap="round" stroke-miterlimit="10" stroke-width="2.921"/>
      <path id="Stroke_11-2" data-name="Stroke 11" d="M2.712,0H0" transform="translate(14.106 126.467)" fill="none" stroke="#d2d8df" stroke-linecap="round" stroke-miterlimit="10" stroke-width="2.921"/>
      <path id="Stroke_12-2" data-name="Stroke 12" d="M1.808,0,0,1.808" transform="translate(13.202 120.143)" fill="none" stroke="#d2d8df" stroke-linecap="round" stroke-miterlimit="10" stroke-width="2.921"/>
      <path id="Stroke_13-2" data-name="Stroke 13" d="M0,0V1.808" transform="translate(154.337)" fill="none" stroke="#d2d8df" stroke-linecap="round" stroke-miterlimit="10" stroke-width="2.921"/>
      <path id="Stroke_15-2" data-name="Stroke 15" d="M0,0H1.808" transform="translate(148.909 5.424)" fill="none" stroke="#d2d8df" stroke-linecap="round" stroke-miterlimit="10" stroke-width="2.921"/>
      <path id="Stroke_16-2" data-name="Stroke 16" d="M0,1.808V0" transform="translate(154.337 9.039)" fill="none" stroke="#d2d8df" stroke-linecap="round" stroke-miterlimit="10" stroke-width="2.921"/>
      <path id="Stroke_17-2" data-name="Stroke 17" d="M1.808,0H0" transform="translate(157.051 5.424)" fill="none" stroke="#d2d8df" stroke-linecap="round" stroke-miterlimit="10" stroke-width="2.921"/>
      <path id="Stroke_18-2" data-name="Stroke 18" d="M0,0V2.712" transform="translate(49.359 75.88)" fill="none" stroke="#d2d8df" stroke-linecap="round" stroke-miterlimit="10" stroke-width="2.921"/>
      <path id="Stroke_19-2" data-name="Stroke 19" d="M0,0H2.712" transform="translate(41.224 84.01)" fill="none" stroke="#d2d8df" stroke-linecap="round" stroke-miterlimit="10" stroke-width="2.921"/>
      <path id="Stroke_20-2" data-name="Stroke 20" d="M0,2.712V0" transform="translate(49.359 88.526)" fill="none" stroke="#d2d8df" stroke-linecap="round" stroke-miterlimit="10" stroke-width="2.921"/>
      <path id="Stroke_21-2" data-name="Stroke 21" d="M2.712,0H0" transform="translate(53.879 84.01)" fill="none" stroke="#d2d8df" stroke-linecap="round" stroke-miterlimit="10" stroke-width="2.921"/>
      <g id="Group_42-2" data-name="Group 42" transform="translate(23.392 25.016)">
        <path id="Stroke_22-2" data-name="Stroke 22" d="M3.912,0A3.913,3.913,0,1,1,0,3.913" transform="translate(216.819 149.364)" fill="none" stroke="#d2d8df" stroke-linecap="round" stroke-miterlimit="10" stroke-width="2.921"/>
        <path id="Stroke_24-2" data-name="Stroke 24" d="M12.278,5.233A6.17,6.17,0,1,1,5.295,0" transform="translate(226.323 195.517)" fill="none" stroke="#d2d8df" stroke-linecap="round" stroke-miterlimit="10" stroke-width="2.921"/>
        <path id="Fill_26-2" data-name="Fill 26" d="M0,6.622C2.323,5.9,5.884,3.057,6.708,0c.747,2.7,3.881,5.9,6.708,6.139-3.182,1.127-6.225,4.474-6.708,7.1C6.379,10.563,2.171,7.013,0,6.622" transform="translate(238.697 107.27)" fill="#ebecee"/>
        <path id="Fill_28-2" data-name="Fill 28" d="M0,3.311A5.7,5.7,0,0,0,3.354,0,4.584,4.584,0,0,0,6.707,3.07,5.576,5.576,0,0,0,3.354,6.621C3.189,5.281,1.085,3.506,0,3.311" transform="translate(0 144.852)" fill="#ebecee"/>
        <path id="Fill_30-2" data-name="Fill 30" d="M6.067,3.034A3.034,3.034,0,1,1,3.034,0,3.034,3.034,0,0,1,6.067,3.034" transform="translate(15.494 19.494)" fill="#d1d8df"/>
        <path id="Fill_32-2" data-name="Fill 32" d="M10.141,5.072A5.071,5.071,0,1,1,5.071,0a5.071,5.071,0,0,1,5.07,5.072" transform="translate(190.729 207.799)" fill="#ebecee"/>
        <path id="Fill_34-2" data-name="Fill 34" d="M8.043,4.023A4.022,4.022,0,1,1,4.022,0,4.022,4.022,0,0,1,8.043,4.023" transform="translate(286.565 12.912)" fill="#ebecee"/>
        <path id="Stroke_36-2" data-name="Stroke 36" d="M5.07,2.536A2.535,2.535,0,1,1,2.535,0,2.536,2.536,0,0,1,5.07,2.536Z" transform="translate(73.248 202.117)" fill="none" stroke="#d2d8df" stroke-linecap="round" stroke-miterlimit="10" stroke-width="2.921"/>
        <path id="Stroke_38-2" data-name="Stroke 38" d="M6.067,3.034A3.034,3.034,0,1,1,3.034,0,3.034,3.034,0,0,1,6.067,3.034Z" transform="translate(70.74 0)" fill="none" stroke="#d2d8df" stroke-linecap="round" stroke-miterlimit="10" stroke-width="2.921"/>
        <path id="Stroke_40-2" data-name="Stroke 40" d="M5.092,7.268A3.756,3.756,0,1,1,7.266,2.421,3.756,3.756,0,0,1,5.092,7.268Z" transform="translate(149.164 225.469)" fill="none" stroke="#d2d8df" stroke-linecap="round" stroke-miterlimit="10" stroke-width="2.921"/>
      </g>
    </g>
    <g id="Group_2443" data-name="Group 2443" transform="translate(71.151 50.61)">
      <path id="Path_2074" data-name="Path 2074" d="M288.316,368.521a17.156,17.156,0,1,1-17.156-17.158,17.156,17.156,0,0,1,17.156,17.158Zm0,0" transform="translate(-161.211 -215.347)" fill="#ecb7bf"/>
      <path id="Path_2075" data-name="Path 2075" d="M278.034,385.065A9.669,9.669,0,1,1,287.7,375.4a9.68,9.68,0,0,1-9.668,9.668Zm0,0" transform="translate(-168.085 -222.223)" fill="#fff"/>
      <path id="Path_2076" data-name="Path 2076" d="M269.724,385.8a18.721,18.721,0,1,1,18.72-18.72,18.741,18.741,0,0,1-18.72,18.72Zm0-34.314a15.593,15.593,0,1,0,15.592,15.594,15.609,15.609,0,0,0-15.592-15.594Zm0,0" transform="translate(-159.775 -213.911)" fill="#f2d079"/>
      <path id="Path_2077" data-name="Path 2077" d="M149.607,368.521a17.158,17.158,0,1,1-5.025-12.132,17.158,17.158,0,0,1,5.025,12.132Zm0,0" transform="translate(-94.809 -215.347)" fill="#ecb7bf"/>
      <path id="Path_2078" data-name="Path 2078" d="M139.323,385.065a9.669,9.669,0,1,1,9.671-9.668,9.681,9.681,0,0,1-9.671,9.668Zm0,0" transform="translate(-101.683 -222.223)" fill="#fff"/>
      <path id="Path_2079" data-name="Path 2079" d="M131.013,385.8a18.721,18.721,0,1,1,18.722-18.72,18.741,18.741,0,0,1-18.722,18.72Zm0-34.314a15.593,15.593,0,1,0,15.594,15.594,15.61,15.61,0,0,0-15.594-15.594Zm0,0" transform="translate(-93.373 -213.911)" fill="#f2d079"/>
      <path id="Path_2080" data-name="Path 2080" d="M144.754,351.363v12.851a4.2,4.2,0,0,1-4.2,4.2h-1.207a4.2,4.2,0,0,1-3.973-2.833l-4.91-14.221h14.293Zm0,0" transform="translate(-102.07 -215.347)" fill="#ffecbb"/>
      <path id="Path_2081" data-name="Path 2081" d="M283.465,351.363v12.851a4.2,4.2,0,0,1-4.2,4.2h-1.207a4.207,4.207,0,0,1-3.975-2.833l-4.907-14.221h14.293Zm0,0" transform="translate(-168.472 -215.347)" fill="#ffecbb"/>
      <path id="Path_2082" data-name="Path 2082" d="M139.115,368.547h-1.207a5.77,5.77,0,0,1-5.453-3.887l-4.905-14.221a1.563,1.563,0,0,1,1.476-2.075h14.293a1.564,1.564,0,0,1,1.564,1.564v12.851a5.774,5.774,0,0,1-5.767,5.769Zm-7.894-17.056,4.191,12.149a2.645,2.645,0,0,0,2.5,1.78h1.207a2.643,2.643,0,0,0,2.639-2.641V351.491Zm0,0" transform="translate(-100.635 -213.911)" fill="#f2d079"/>
      <path id="Path_2083" data-name="Path 2083" d="M277.825,368.549h-1.207a5.773,5.773,0,0,1-5.453-3.887l-4.907-14.221a1.562,1.562,0,0,1,1.478-2.073h14.293a1.564,1.564,0,0,1,1.564,1.564v12.851a5.775,5.775,0,0,1-5.767,5.767Zm-7.9-17.056,4.193,12.149a2.642,2.642,0,0,0,2.494,1.78h1.207a2.645,2.645,0,0,0,2.641-2.641V351.493Zm0,0" transform="translate(-167.036 -213.912)" fill="#f2d079"/>
      <path id="Path_2084" data-name="Path 2084" d="M394.311,111.4H363.569a3.686,3.686,0,0,1-3.686-3.686V98.5a3.687,3.687,0,0,1,3.686-3.688h30.742A3.688,3.688,0,0,1,398,98.5v9.216a3.688,3.688,0,0,1-3.688,3.686Zm0,0" transform="translate(-211.896 -92.534)" fill="#ecb7bf"/>
      <path id="Path_2085" data-name="Path 2085" d="M392.875,111.53H362.132a5.256,5.256,0,0,1-5.249-5.25V97.064a5.256,5.256,0,0,1,5.249-5.252h30.742a5.258,5.258,0,0,1,5.252,5.252v9.216a5.258,5.258,0,0,1-5.252,5.25ZM362.132,94.94a2.125,2.125,0,0,0-2.122,2.124v9.216a2.123,2.123,0,0,0,2.122,2.122h30.742A2.125,2.125,0,0,0,395,106.28V97.064a2.127,2.127,0,0,0-2.124-2.124Zm0,0" transform="translate(-210.46 -91.098)" fill="#f2d079"/>
      <path id="Path_2086" data-name="Path 2086" d="M329.468,114.634a3.948,3.948,0,0,1,3.757-3.531h7.213v-9.216h-7.213a13.2,13.2,0,0,0-12.888,11.485l-1.075,7.779h3.875a4.606,4.606,0,0,1,4.565,5.223Zm0,0" transform="translate(-192.451 -95.921)" fill="#ffecbb"/>
      <path id="Path_2087" data-name="Path 2087" d="M326.272,126.5a1.612,1.612,0,0,1-.222-.016,1.564,1.564,0,0,1-1.328-1.757,3.046,3.046,0,0,0-3.018-3.451H317.83a1.563,1.563,0,0,1-1.55-1.778l1.075-7.777A14.766,14.766,0,0,1,331.79,98.883H339a1.564,1.564,0,0,1,1.564,1.564v9.216A1.564,1.564,0,0,1,339,111.227H331.79a2.385,2.385,0,0,0-2.208,2.181c0,.008,0,.014,0,.018l-1.764,11.74a1.566,1.566,0,0,1-1.546,1.333Zm-6.649-8.351H321.7a6.178,6.178,0,0,1,3.806,1.313l.975-6.487a5.514,5.514,0,0,1,5.3-4.873h5.649v-6.088H331.79a11.628,11.628,0,0,0-11.338,10.134Zm8.412-4.952h0Zm0,0" transform="translate(-191.016 -94.483)" fill="#f2d079"/>
      <path id="Path_2088" data-name="Path 2088" d="M211.592,140.414a4.612,4.612,0,0,0-3.468-1.574H86.972a7.969,7.969,0,0,0-7.9,9.035l9.353,69.456a11.37,11.37,0,0,0,11.232,9.823h91.935a11.372,11.372,0,0,0,11.232-9.821l9.866-73.27a4.611,4.611,0,0,0-1.1-3.649ZM88.4,148.056h17.814l2.653,30.33H92.478Zm11.263,69.879a2.127,2.127,0,0,1-2.1-1.834l-3.837-28.5h15.951l2.653,30.33Zm41.6,0H121.575l-2.653-30.33h22.336Zm0-39.549H118.115l-2.653-30.33h25.8Zm28.9,39.549H150.474v-30.33h22.334Zm3.46-39.549H150.474v-30.33h25.8ZM193.691,216.1a2.123,2.123,0,0,1-2.1,1.834H179.408l2.653-30.33h15.466Zm5.078-37.715h-15.9l2.655-30.33h17.331Zm0,0" transform="translate(-77.436 -113.61)" fill="#ffecbb"/>
      <path id="Path_2089" data-name="Path 2089" d="M206.668,300.649a6.644,6.644,0,0,1,0,13.256H103.112a4.608,4.608,0,1,0,0,9.216H206.67a15.643,15.643,0,0,0,15.4-15.844,15.832,15.832,0,0,0-10.237-14.91,11.372,11.372,0,0,1-10.9,8.28Zm0,0" transform="translate(-86.772 -187.105)" fill="#ffecbb"/>
      <path id="Path_2090" data-name="Path 2090" d="M190.157,227.28H98.22A12.943,12.943,0,0,1,85.436,216.1l-9.351-69.457a9.532,9.532,0,0,1,9.448-10.806H206.687a6.172,6.172,0,0,1,6.115,6.995l-9.866,73.27a12.936,12.936,0,0,1-12.78,11.175ZM85.536,138.968a6.408,6.408,0,0,0-6.351,7.263l9.353,69.455a9.8,9.8,0,0,0,9.685,8.469h91.935a9.8,9.8,0,0,0,9.682-8.467l9.866-73.27a3.043,3.043,0,0,0-3.018-3.449Zm104.621,79.1H177.971a1.563,1.563,0,0,1-1.558-1.7l2.653-30.332a1.564,1.564,0,0,1,1.558-1.427h15.466a1.565,1.565,0,0,1,1.552,1.771l-3.839,28.5a3.692,3.692,0,0,1-3.647,3.189Zm-10.479-3.128h10.479a.561.561,0,0,0,.548-.479l3.6-26.724H182.058Zm12.576-.271h0Zm-23.534,3.4H149.038a1.564,1.564,0,0,1-1.564-1.564v-30.33a1.564,1.564,0,0,1,1.564-1.564h22.336a1.563,1.563,0,0,1,1.558,1.7l-2.653,30.331a1.563,1.563,0,0,1-1.558,1.427ZM150.6,214.936h16.686l2.379-27.2H150.6Zm-10.78,3.128H120.139a1.563,1.563,0,0,1-1.558-1.427l-2.653-30.331a1.563,1.563,0,0,1,1.56-1.7h22.334a1.564,1.564,0,0,1,1.564,1.564V216.5a1.564,1.564,0,0,1-1.564,1.564Zm-18.249-3.128h16.686v-27.2H119.191Zm-10.684,3.128H98.22a3.7,3.7,0,0,1-3.649-3.189l-3.836-28.5a1.562,1.562,0,0,1,1.549-1.771h15.948a1.562,1.562,0,0,1,1.558,1.427l2.653,30.332a1.56,1.56,0,0,1-1.556,1.7Zm-16.816-30.33,3.6,26.724a.562.562,0,0,0,.55.479h10.959l-2.38-27.2Zm103.261-9.216h-15.9a1.564,1.564,0,0,1-1.558-1.7l2.653-30.332a1.563,1.563,0,0,1,1.558-1.427h17.331a1.562,1.562,0,0,1,1.55,1.771l-4.083,30.332a1.565,1.565,0,0,1-1.55,1.356Zm-14.193-3.128h12.825l3.663-27.2H185.518Zm-10.961,3.128H149.038a1.564,1.564,0,0,1-1.564-1.564V146.62a1.564,1.564,0,0,1,1.564-1.564h25.8a1.563,1.563,0,0,1,1.558,1.7l-2.653,30.333a1.566,1.566,0,0,1-1.56,1.427ZM150.6,175.389h20.145l2.378-27.2H150.6Zm-10.78,3.128H116.679a1.562,1.562,0,0,1-1.558-1.427l-2.653-30.333a1.563,1.563,0,0,1,1.558-1.7h25.8a1.564,1.564,0,0,1,1.564,1.564v30.332a1.564,1.564,0,0,1-1.564,1.564Zm-21.709-3.128h20.145v-27.2H115.732Zm-10.687,3.128H91.042a1.564,1.564,0,0,1-1.549-1.356L85.41,146.828a1.562,1.562,0,0,1,1.549-1.771h17.814a1.564,1.564,0,0,1,1.558,1.427l2.653,30.332a1.564,1.564,0,0,1-1.558,1.7ZM92.41,175.389h13.31l-2.381-27.2H88.747Zm0,0" transform="translate(-75.999 -112.174)" fill="#f2d079"/>
      <rect id="Rectangle_47" data-name="Rectangle 47" width="188" height="172" transform="translate(0.09)" fill="none"/>
      <path id="Path_2091" data-name="Path 2091" d="M205.234,323.248H101.676a6.172,6.172,0,1,1,0-12.344H205.234a5.087,5.087,0,0,0,0-10.131h-5.74a1.564,1.564,0,1,1,0-3.128,9.8,9.8,0,0,0,9.4-7.139,1.566,1.566,0,0,1,2.047-1.045A17.431,17.431,0,0,1,222.2,305.84a17.209,17.209,0,0,1-16.962,17.408Zm-103.558-9.216a3.044,3.044,0,1,0,0,6.088H205.234a14.079,14.079,0,0,0,13.835-14.28,14.355,14.355,0,0,0-7.766-12.812,12.951,12.951,0,0,1-3.841,4.964,8.164,8.164,0,0,1,5.518,7.848,7.989,7.989,0,0,1-7.746,8.194H101.676Zm0,0" transform="translate(-85.336 -185.668)" fill="#f2d079"/>
      <path id="Path_2092" data-name="Path 2092" d="M335.688,195.588a30.563,30.563,0,1,1-30.563-30.561,30.563,30.563,0,0,1,30.563,30.561Zm0,0" transform="translate(-171.053 -126.146)" fill="#ecb7bf"/>
      <path id="Path_2093" data-name="Path 2093" d="M312.306,225.512a22.742,22.742,0,1,1,22.744-22.744,22.768,22.768,0,0,1-22.744,22.744Zm0,0" transform="translate(-178.233 -133.327)" fill="#fff"/>
      <path id="Path_2094" data-name="Path 2094" d="M303.689,226.278a32.126,32.126,0,1,1,32.127-32.127,32.163,32.163,0,0,1-32.127,32.127Zm0-61.124a29,29,0,1,0,29,29,29.032,29.032,0,0,0-29-29Zm0,0" transform="translate(-169.616 -124.71)" fill="#f2d079"/>
      <path id="Path_2095" data-name="Path 2095" d="M332.853,223.958H305.974a1.563,1.563,0,0,1-1.564-1.564v-6.549a1.564,1.564,0,0,1,1.564-1.564h26.879a1.563,1.563,0,0,1,1.564,1.564v6.549a1.564,1.564,0,0,1-1.564,1.564Zm0,0" transform="translate(-185.341 -149.725)" fill="#ecb7bf"/>
    </g>
    <g id="Group_43887" data-name="Group 43887" transform="translate(71.151 50.61)">
      <path id="Path_2074-2" data-name="Path 2074" d="M288.316,368.521a17.156,17.156,0,1,1-17.156-17.158,17.156,17.156,0,0,1,17.156,17.158Zm0,0" transform="translate(-161.211 -215.347)" fill="#ecb7bf"/>
      <path id="Path_2075-2" data-name="Path 2075" d="M278.034,385.065A9.669,9.669,0,1,1,287.7,375.4a9.68,9.68,0,0,1-9.668,9.668Zm0,0" transform="translate(-168.085 -222.223)" fill="#fff"/>
      <path id="Path_2076-2" data-name="Path 2076" d="M269.724,385.8a18.721,18.721,0,1,1,18.72-18.72,18.741,18.741,0,0,1-18.72,18.72Zm0-34.314a15.593,15.593,0,1,0,15.592,15.594,15.609,15.609,0,0,0-15.592-15.594Zm0,0" transform="translate(-159.775 -213.911)" fill="#f2d079"/>
      <path id="Path_2077-2" data-name="Path 2077" d="M149.607,368.521a17.158,17.158,0,1,1-5.025-12.132,17.158,17.158,0,0,1,5.025,12.132Zm0,0" transform="translate(-94.809 -215.347)" fill="#ecb7bf"/>
      <path id="Path_2078-2" data-name="Path 2078" d="M139.323,385.065a9.669,9.669,0,1,1,9.671-9.668,9.681,9.681,0,0,1-9.671,9.668Zm0,0" transform="translate(-101.683 -222.223)" fill="#fff"/>
      <path id="Path_2079-2" data-name="Path 2079" d="M131.013,385.8a18.721,18.721,0,1,1,18.722-18.72,18.741,18.741,0,0,1-18.722,18.72Zm0-34.314a15.593,15.593,0,1,0,15.594,15.594,15.61,15.61,0,0,0-15.594-15.594Zm0,0" transform="translate(-93.373 -213.911)" fill="#f2d079"/>
      <path id="Path_2080-2" data-name="Path 2080" d="M144.754,351.363v12.851a4.2,4.2,0,0,1-4.2,4.2h-1.207a4.2,4.2,0,0,1-3.973-2.833l-4.91-14.221h14.293Zm0,0" transform="translate(-102.07 -215.347)" fill="#ffecbb"/>
      <path id="Path_2081-2" data-name="Path 2081" d="M283.465,351.363v12.851a4.2,4.2,0,0,1-4.2,4.2h-1.207a4.207,4.207,0,0,1-3.975-2.833l-4.907-14.221h14.293Zm0,0" transform="translate(-168.472 -215.347)" fill="#ffecbb"/>
      <path id="Path_2082-2" data-name="Path 2082" d="M139.115,368.547h-1.207a5.77,5.77,0,0,1-5.453-3.887l-4.905-14.221a1.563,1.563,0,0,1,1.476-2.075h14.293a1.564,1.564,0,0,1,1.564,1.564v12.851a5.774,5.774,0,0,1-5.767,5.769Zm-7.894-17.056,4.191,12.149a2.645,2.645,0,0,0,2.5,1.78h1.207a2.643,2.643,0,0,0,2.639-2.641V351.491Zm0,0" transform="translate(-100.635 -213.911)" fill="#f2d079"/>
      <path id="Path_2083-2" data-name="Path 2083" d="M277.825,368.549h-1.207a5.773,5.773,0,0,1-5.453-3.887l-4.907-14.221a1.562,1.562,0,0,1,1.478-2.073h14.293a1.564,1.564,0,0,1,1.564,1.564v12.851a5.775,5.775,0,0,1-5.767,5.767Zm-7.9-17.056,4.193,12.149a2.642,2.642,0,0,0,2.494,1.78h1.207a2.645,2.645,0,0,0,2.641-2.641V351.493Zm0,0" transform="translate(-167.036 -213.912)" fill="#f2d079"/>
      <path id="Path_2084-2" data-name="Path 2084" d="M394.311,111.4H363.569a3.686,3.686,0,0,1-3.686-3.686V98.5a3.687,3.687,0,0,1,3.686-3.688h30.742A3.688,3.688,0,0,1,398,98.5v9.216a3.688,3.688,0,0,1-3.688,3.686Zm0,0" transform="translate(-211.896 -92.534)" fill="#ecb7bf"/>
      <path id="Path_2085-2" data-name="Path 2085" d="M392.875,111.53H362.132a5.256,5.256,0,0,1-5.249-5.25V97.064a5.256,5.256,0,0,1,5.249-5.252h30.742a5.258,5.258,0,0,1,5.252,5.252v9.216a5.258,5.258,0,0,1-5.252,5.25ZM362.132,94.94a2.125,2.125,0,0,0-2.122,2.124v9.216a2.123,2.123,0,0,0,2.122,2.122h30.742A2.125,2.125,0,0,0,395,106.28V97.064a2.127,2.127,0,0,0-2.124-2.124Zm0,0" transform="translate(-210.46 -91.098)" fill="#f2d079"/>
      <path id="Path_2086-2" data-name="Path 2086" d="M329.468,114.634a3.948,3.948,0,0,1,3.757-3.531h7.213v-9.216h-7.213a13.2,13.2,0,0,0-12.888,11.485l-1.075,7.779h3.875a4.606,4.606,0,0,1,4.565,5.223Zm0,0" transform="translate(-192.451 -95.921)" fill="#ffecbb"/>
      <path id="Path_2087-2" data-name="Path 2087" d="M326.272,126.5a1.612,1.612,0,0,1-.222-.016,1.564,1.564,0,0,1-1.328-1.757,3.046,3.046,0,0,0-3.018-3.451H317.83a1.563,1.563,0,0,1-1.55-1.778l1.075-7.777A14.766,14.766,0,0,1,331.79,98.883H339a1.564,1.564,0,0,1,1.564,1.564v9.216A1.564,1.564,0,0,1,339,111.227H331.79a2.385,2.385,0,0,0-2.208,2.181c0,.008,0,.014,0,.018l-1.764,11.74a1.566,1.566,0,0,1-1.546,1.333Zm-6.649-8.351H321.7a6.178,6.178,0,0,1,3.806,1.313l.975-6.487a5.514,5.514,0,0,1,5.3-4.873h5.649v-6.088H331.79a11.628,11.628,0,0,0-11.338,10.134Zm8.412-4.952h0Zm0,0" transform="translate(-191.016 -94.483)" fill="#f2d079"/>
      <path id="Path_2088-2" data-name="Path 2088" d="M211.592,140.414a4.612,4.612,0,0,0-3.468-1.574H86.972a7.969,7.969,0,0,0-7.9,9.035l9.353,69.456a11.37,11.37,0,0,0,11.232,9.823h91.935a11.372,11.372,0,0,0,11.232-9.821l9.866-73.27a4.611,4.611,0,0,0-1.1-3.649ZM88.4,148.056h17.814l2.653,30.33H92.478Zm11.263,69.879a2.127,2.127,0,0,1-2.1-1.834l-3.837-28.5h15.951l2.653,30.33Zm41.6,0H121.575l-2.653-30.33h22.336Zm0-39.549H118.115l-2.653-30.33h25.8Zm28.9,39.549H150.474v-30.33h22.334Zm3.46-39.549H150.474v-30.33h25.8ZM193.691,216.1a2.123,2.123,0,0,1-2.1,1.834H179.408l2.653-30.33h15.466Zm5.078-37.715h-15.9l2.655-30.33h17.331Zm0,0" transform="translate(-77.436 -113.61)" fill="#ffecbb"/>
      <path id="Path_2089-2" data-name="Path 2089" d="M206.668,300.649a6.644,6.644,0,0,1,0,13.256H103.112a4.608,4.608,0,1,0,0,9.216H206.67a15.643,15.643,0,0,0,15.4-15.844,15.832,15.832,0,0,0-10.237-14.91,11.372,11.372,0,0,1-10.9,8.28Zm0,0" transform="translate(-86.772 -187.105)" fill="#ffecbb"/>
      <path id="Path_2090-2" data-name="Path 2090" d="M190.157,227.28H98.22A12.943,12.943,0,0,1,85.436,216.1l-9.351-69.457a9.532,9.532,0,0,1,9.448-10.806H206.687a6.172,6.172,0,0,1,6.115,6.995l-9.866,73.27a12.936,12.936,0,0,1-12.78,11.175ZM85.536,138.968a6.408,6.408,0,0,0-6.351,7.263l9.353,69.455a9.8,9.8,0,0,0,9.685,8.469h91.935a9.8,9.8,0,0,0,9.682-8.467l9.866-73.27a3.043,3.043,0,0,0-3.018-3.449Zm104.621,79.1H177.971a1.563,1.563,0,0,1-1.558-1.7l2.653-30.332a1.564,1.564,0,0,1,1.558-1.427h15.466a1.565,1.565,0,0,1,1.552,1.771l-3.839,28.5a3.692,3.692,0,0,1-3.647,3.189Zm-10.479-3.128h10.479a.561.561,0,0,0,.548-.479l3.6-26.724H182.058Zm12.576-.271h0Zm-23.534,3.4H149.038a1.564,1.564,0,0,1-1.564-1.564v-30.33a1.564,1.564,0,0,1,1.564-1.564h22.336a1.563,1.563,0,0,1,1.558,1.7l-2.653,30.331a1.563,1.563,0,0,1-1.558,1.427ZM150.6,214.936h16.686l2.379-27.2H150.6Zm-10.78,3.128H120.139a1.563,1.563,0,0,1-1.558-1.427l-2.653-30.331a1.563,1.563,0,0,1,1.56-1.7h22.334a1.564,1.564,0,0,1,1.564,1.564V216.5a1.564,1.564,0,0,1-1.564,1.564Zm-18.249-3.128h16.686v-27.2H119.191Zm-10.684,3.128H98.22a3.7,3.7,0,0,1-3.649-3.189l-3.836-28.5a1.562,1.562,0,0,1,1.549-1.771h15.948a1.562,1.562,0,0,1,1.558,1.427l2.653,30.332a1.56,1.56,0,0,1-1.556,1.7Zm-16.816-30.33,3.6,26.724a.562.562,0,0,0,.55.479h10.959l-2.38-27.2Zm103.261-9.216h-15.9a1.564,1.564,0,0,1-1.558-1.7l2.653-30.332a1.563,1.563,0,0,1,1.558-1.427h17.331a1.562,1.562,0,0,1,1.55,1.771l-4.083,30.332a1.565,1.565,0,0,1-1.55,1.356Zm-14.193-3.128h12.825l3.663-27.2H185.518Zm-10.961,3.128H149.038a1.564,1.564,0,0,1-1.564-1.564V146.62a1.564,1.564,0,0,1,1.564-1.564h25.8a1.563,1.563,0,0,1,1.558,1.7l-2.653,30.333a1.566,1.566,0,0,1-1.56,1.427ZM150.6,175.389h20.145l2.378-27.2H150.6Zm-10.78,3.128H116.679a1.562,1.562,0,0,1-1.558-1.427l-2.653-30.333a1.563,1.563,0,0,1,1.558-1.7h25.8a1.564,1.564,0,0,1,1.564,1.564v30.332a1.564,1.564,0,0,1-1.564,1.564Zm-21.709-3.128h20.145v-27.2H115.732Zm-10.687,3.128H91.042a1.564,1.564,0,0,1-1.549-1.356L85.41,146.828a1.562,1.562,0,0,1,1.549-1.771h17.814a1.564,1.564,0,0,1,1.558,1.427l2.653,30.332a1.564,1.564,0,0,1-1.558,1.7ZM92.41,175.389h13.31l-2.381-27.2H88.747Zm0,0" transform="translate(-75.999 -112.174)" fill="#f2d079"/>
      <rect id="Rectangle_47-2" data-name="Rectangle 47" width="188" height="172" transform="translate(0.09)" fill="none"/>
      <path id="Path_2091-2" data-name="Path 2091" d="M205.234,323.248H101.676a6.172,6.172,0,1,1,0-12.344H205.234a5.087,5.087,0,0,0,0-10.131h-5.74a1.564,1.564,0,1,1,0-3.128,9.8,9.8,0,0,0,9.4-7.139,1.566,1.566,0,0,1,2.047-1.045A17.431,17.431,0,0,1,222.2,305.84a17.209,17.209,0,0,1-16.962,17.408Zm-103.558-9.216a3.044,3.044,0,1,0,0,6.088H205.234a14.079,14.079,0,0,0,13.835-14.28,14.355,14.355,0,0,0-7.766-12.812,12.951,12.951,0,0,1-3.841,4.964,8.164,8.164,0,0,1,5.518,7.848,7.989,7.989,0,0,1-7.746,8.194H101.676Zm0,0" transform="translate(-85.336 -185.668)" fill="#f2d079"/>
      <path id="Path_2092-2" data-name="Path 2092" d="M335.688,195.588a30.563,30.563,0,1,1-30.563-30.561,30.563,30.563,0,0,1,30.563,30.561Zm0,0" transform="translate(-171.053 -126.146)" fill="#ecb7bf"/>
      <path id="Path_2093-2" data-name="Path 2093" d="M312.306,225.512a22.742,22.742,0,1,1,22.744-22.744,22.768,22.768,0,0,1-22.744,22.744Zm0,0" transform="translate(-178.233 -133.327)" fill="#fff"/>
      <path id="Path_2094-2" data-name="Path 2094" d="M303.689,226.278a32.126,32.126,0,1,1,32.127-32.127,32.163,32.163,0,0,1-32.127,32.127Zm0-61.124a29,29,0,1,0,29,29,29.032,29.032,0,0,0-29-29Zm0,0" transform="translate(-169.616 -124.71)" fill="#f2d079"/>
      <path id="Path_2095-2" data-name="Path 2095" d="M332.853,223.958H305.974a1.563,1.563,0,0,1-1.564-1.564v-6.549a1.564,1.564,0,0,1,1.564-1.564h26.879a1.563,1.563,0,0,1,1.564,1.564v6.549a1.564,1.564,0,0,1-1.564,1.564Zm0,0" transform="translate(-185.341 -149.725)" fill="#ecb7bf"/>
    </g>
  </g>
</svg>
