<svg xmlns="http://www.w3.org/2000/svg" width="27" height="21" viewBox="0 0 27 21">
  <g id="Online_course" data-name="Online course" transform="translate(-7.5 -66.85)">
    <path id="Union_4" data-name="Union 4" d="M2.416,20A2.467,2.467,0,0,1,0,17.5V2.483A2.487,2.487,0,0,1,1.975.023l0-.012,0-.012h22A2.436,2.436,0,0,1,26,1.811V18.168A2.44,2.44,0,0,1,23.674,20ZM.968,17.5A1.476,1.476,0,0,0,2.416,19H23.674a1.476,1.476,0,0,0,1.449-1.5V3.984H.968ZM25.123,2.984v-.5a1.479,1.479,0,0,0-1.449-1.5H2.416a1.479,1.479,0,0,0-1.448,1.5v.5H4.793v0ZM5.9,17.125a.645.645,0,0,1-.645-.646V6.133A.646.646,0,0,1,5.9,5.486H20.1a.646.646,0,0,1,.645.647V16.479a.645.645,0,0,1-.645.646Zm.645-1.293h12.9V6.779H6.55Zm8.362-1.292H8.463a.647.647,0,0,1,0-1.294h6.449a.645.645,0,1,1,1.291,0h1.29a.647.647,0,0,1,0,1.294H16.2a.645.645,0,1,1-1.291,0Zm-3.568-2.022a.647.647,0,0,1-.33-.565V8.072A.644.644,0,0,1,12,7.522l3.145,1.94a.648.648,0,0,1,0,1.1L12,12.5a.642.642,0,0,1-.653.014ZM12.3,10.8l1.269-.783L12.3,9.229ZM5.79,1.983a.6.6,0,1,1,.6.6A.6.6,0,0,1,5.79,1.983Zm-3.393,0a.6.6,0,1,1,.6.6A.6.6,0,0,1,2.4,1.983Z" transform="translate(8 67.35)" fill="#c99200" stroke="#c99200" stroke-width="1" opacity="0.8"/>
  </g>
</svg>
