<svg xmlns="http://www.w3.org/2000/svg" width="21" height="27" viewBox="0 0 21 27">
  <g id="order_2_" data-name="order (2)" transform="translate(0.5 0.5)">
    <path id="Path_20388" data-name="Path 20388" d="M73.094,164.173l-.644-.77-1.169.977,1.656,1.979,2.753-2.467-1.017-1.135Zm0,0" transform="translate(-67.342 -154.493)" fill="#c99200" stroke="#c99200" stroke-width="1"/>
    <path id="Path_20389" data-name="Path 20389" d="M180.668,187h5.889v1.523h-5.889Zm0,0" transform="translate(-170.593 -177.504)" fill="#c99200" stroke="#c99200" stroke-width="1"/>
    <path id="Path_20390" data-name="Path 20390" d="M73.094,250.435l-.644-.77-1.169.977,1.656,1.979,2.753-2.467-1.017-1.134Zm0,0" transform="translate(-67.342 -236.374)" fill="#c99200" stroke="#c99200" stroke-width="1"/>
    <path id="Path_20391" data-name="Path 20391" d="M180.668,273.258h5.889v1.523h-5.889Zm0,0" transform="translate(-170.593 -259.382)" fill="#c99200" stroke="#c99200" stroke-width="1"/>
    <path id="Path_20392" data-name="Path 20392" d="M73.094,336.693l-.644-.77-1.169.977,1.656,1.979,2.753-2.467-1.017-1.134Zm0,0" transform="translate(-67.342 -318.252)" fill="#c99200" stroke="#c99200" stroke-width="1"/>
    <path id="Path_20393" data-name="Path 20393" d="M180.668,359.52h5.889v1.523h-5.889Zm0,0" transform="translate(-170.593 -341.263)" fill="#c99200" stroke="#c99200" stroke-width="1"/>
    <path id="Path_20394" data-name="Path 20394" d="M16.4,0H14.772V1.551h-2.1V0H11.049V1.551h-2.1V0H7.325V1.551h-2.1V0H3.6V1.551H0V26H20V1.551H16.4Zm1.976,3.075v21.4H1.626V3.075H3.6V4.626H5.228V3.075h2.1V4.626H8.951V3.075h2.1V4.626h1.626V3.075h2.1V4.626H16.4V3.075Zm0,0" transform="translate(0)" fill="#c99200" stroke="#c99200" stroke-width="1"/>
  </g>
</svg>
