<svg xmlns="http://www.w3.org/2000/svg" width="22.002" height="21.998" viewBox="0 0 22.002 21.998">
  <path id="Union_6" data-name="Union 6" d="M-7278.779-3060.223A10.924,10.924,0,0,1-7282-3068a11.012,11.012,0,0,1,11-11,11.011,11.011,0,0,1,11,11,11.012,11.012,0,0,1-11,11A10.931,10.931,0,0,1-7278.779-3060.223Zm-1.02-7.778a8.783,8.783,0,0,0,2.91,6.533,3.088,3.088,0,0,1,1.487-1.332c1.043-.391,2.131-.132,2.8-.8v-.8a8.823,8.823,0,0,1-1.6-2,9.113,9.113,0,0,0-.4-1.6c-.4-1.6-.8-5.6,3.6-5.6s4,4,3.6,5.6a9.113,9.113,0,0,0-.4,1.6,8.719,8.719,0,0,1-1.6,2v.8c.668.669,1.76.409,2.8.8a3.135,3.135,0,0,1,1.495,1.327,8.781,8.781,0,0,0,2.9-6.528,8.809,8.809,0,0,0-8.8-8.8A8.809,8.809,0,0,0-7279.8-3068Z" transform="translate(7282 3078.999)" fill="#c99200"/>
</svg>
