<svg xmlns="http://www.w3.org/2000/svg" xmlns:xlink="http://www.w3.org/1999/xlink" width="133.5" height="46" viewBox="0 0 133.5 46">
  <defs>
    <linearGradient id="linear-gradient" y1="0.5" x2="1" y2="0.5" gradientUnits="objectBoundingBox">
      <stop offset="0" stop-color="#c38f3b"/>
      <stop offset="0.278" stop-color="#9e6a24"/>
      <stop offset="0.405" stop-color="#c48e3e"/>
      <stop offset="0.551" stop-color="#ebb258"/>
      <stop offset="0.627" stop-color="#fac163"/>
      <stop offset="0.717" stop-color="#e8b057"/>
      <stop offset="0.896" stop-color="#bb8538"/>
      <stop offset="1" stop-color="#9e6a24"/>
    </linearGradient>
  </defs>
  <g id="logo" transform="translate(-88 -284.857)">
    <path id="Path_2099" data-name="Path 2099" d="M221.18,301.478a.539.539,0,0,0-.581.082,6.669,6.669,0,0,1-7.479.937c-1.2-.531-2.428.445-3.248,1.1-.176.141-.358.284-.5.38-.009-.042-.016-.082-.024-.115a9.256,9.256,0,0,0-.431-1.516,1.022,1.022,0,0,0-.655-.62c-1.022-.328-2.874.763-5.2,2.293.332-.373.713-.791,1.113-1.225.153-.137.3-.273.451-.407a.536.536,0,0,0,.143-.233c.455-.487.931-.99,1.426-1.5a.551.551,0,0,0,.053-.713.545.545,0,0,0-.407-.219.538.538,0,0,0-.424.167c-.342.357-1.166,1.218-2.035,2.158a35.233,35.233,0,0,1-4.027,3.264,22.425,22.425,0,0,1,1.055-2.355c.215-.433.384-.777.461-.978a.589.589,0,0,0-.161-.7l.051-.1-.086.076c-.432-.294-.642-.1-2.009,1.129-.79.71-3.1,2.788-3.843,2.936a8.99,8.99,0,0,1,2.826-3.488c.64-.383,1-.274,1.133-.208a.559.559,0,0,0,.62-.075.549.549,0,0,0,.179-.475.541.541,0,0,0-.281-.411,2.171,2.171,0,0,0-2.211.231,5.39,5.39,0,0,0-.826.659c-.01.007-.022.007-.032.015-2.726,2.347-4.981,3.833-5.845,3.833h-.009a11.958,11.958,0,0,1,2.44-3.723.55.55,0,0,0,.013-.713.538.538,0,0,0-.145-.123,3.164,3.164,0,0,0,2.478.037.537.537,0,0,0,.26-.382.548.548,0,0,0-.809-.563c-.517.3-1.62-.057-2.479-.549a.545.545,0,0,0-.731.18h0a.546.546,0,0,0,.192.768,7.653,7.653,0,0,0,.925.445c-.036-.008-.081-.007-.11-.012a.544.544,0,0,0-.414.191c-.15.175-.3.357-.455.542a.52.52,0,0,0-.113.045l-.175.134c-2.926,2.337-5.945,4.278-6.85,4.428a15.3,15.3,0,0,1,3.093-3.591.64.64,0,0,0,.168-.677.614.614,0,0,0-.625-.408,16.242,16.242,0,0,1-2.937-.024c.107-.07.244-.156.418-.26.431-.261.668-.4.79-.626a.631.631,0,0,0,.061-.469l.063-.039h-.075a.627.627,0,0,0-.075-.152c-.149-.215-.423-.4-1.411-.308a.538.538,0,0,0-.374.2.551.551,0,0,0-.115.417.541.541,0,0,0,.144.307c-.508.329-.906.675-.868,1.151a.759.759,0,0,0,.187.414,35.339,35.339,0,0,1-4.039,3.275,22.427,22.427,0,0,1,1.055-2.355c.215-.433.384-.777.461-.978a.588.588,0,0,0-.161-.7l.051-.1-.087.076c-.427-.292-.639-.1-2.009,1.129-.79.71-3.1,2.788-3.843,2.936a8.372,8.372,0,0,1,1.858-2.667.515.515,0,0,0,.049-.051,5.056,5.056,0,0,1,.919-.769c.64-.383,1-.274,1.134-.208a.559.559,0,0,0,.62-.075.546.546,0,0,0,.179-.476.538.538,0,0,0-.281-.411,2.171,2.171,0,0,0-2.211.231,6.451,6.451,0,0,0-1.1.922c-2.236,1.144-19.682,9.964-23.995,9.213-.4-.07-.5-.223-.54-.331-.591-1.579,4.119-7.372,7.264-11.241a61.685,61.685,0,0,0,5.13-6.833c.121-.218.489-.883.011-1.307-.5-.446-1.244-.453-6.792,3.323-3.339,2.273-7.44,5.258-11.419,8.153-3.65,2.656-7.676,5.584-9.867,7.011.882-.98,2.166-2.3,3.351-3.522,4.331-4.463,10.264-10.574,11.062-13.789a1.022,1.022,0,0,0-.342-1.2c-.643-.433-1.857-.468-8.825,4.18-4.206,2.805-9.264,6.489-13.739,9.748-2.452,1.785-4.955,3.608-6.817,4.908.629-.579,1.335-1.218,2.057-1.871,4.868-4.4,12.224-11.062,13.625-14.949a1.676,1.676,0,0,0-.218-1.552c-1.569-2.317-9.757-4.117-25.031-5.5-10.129-.919-19.929-1.313-21.79-1.382a.554.554,0,0,0-.391.144.546.546,0,0,0,.349.947c1.134.042,11.38.44,21.735,1.379,19.3,1.75,23.46,3.9,24.223,5.027a.593.593,0,0,1,.094.571c-1.308,3.631-8.542,10.177-13.329,14.509-4.333,3.922-4.942,4.526-4.729,5.15a.594.594,0,0,0,.049.11l-.333.4.458-.246a.736.736,0,0,0,.432.163c.67,0,2.67-1.391,10.26-6.918,4.457-3.247,9.51-6.927,13.7-9.722,5.6-3.733,7.139-4.154,7.509-4.186,0,.011-.006.024-.009.036-.727,2.928-6.541,8.918-10.786,13.291-4.22,4.348-4.948,5.175-4.669,5.836a.653.653,0,0,0,.1.168l-.011.018.021-.008a.681.681,0,0,0,.52.218c.8,0,3.927-2.217,12.054-8.129,3.854-2.8,7.838-5.7,11.083-7.92a45.151,45.151,0,0,1,5.246-3.266,71.581,71.581,0,0,1-4.851,6.366c-4.227,5.2-8.22,10.112-7.41,12.278a1.639,1.639,0,0,0,1.377,1.025,4.312,4.312,0,0,0,.723.056c4.593,0,16.654-5.732,21.8-8.286a2.9,2.9,0,0,0-.592,1.772.919.919,0,0,0,.775.755c.932.164,2.39-.988,4.333-2.715-.645,1.4-.837,2.139-.542,2.592a.756.756,0,0,0,.668.332h0c.852-.037,3.461-2.24,5.544-4.122a12.812,12.812,0,0,0,1.9.082c-2.84,2.871-2.653,3.67-2.59,3.942a.859.859,0,0,0,.6.635,1.07,1.07,0,0,0,.329.047c1.187,0,3.54-1.527,5.415-2.9a2.156,2.156,0,0,0-.276,1.572.973.973,0,0,0,.852.616,1.478,1.478,0,0,0,.168.01,7.6,7.6,0,0,0,3.467-1.648,1.641,1.641,0,0,0-.108.8.919.919,0,0,0,.775.755c.933.164,2.391-.988,4.333-2.715-.645,1.4-.837,2.139-.543,2.592a.755.755,0,0,0,.669.333h0a3.578,3.578,0,0,0,1.4-.7.662.662,0,0,0,.079.224.534.534,0,0,0,.041.071l-.238.311.334-.2a.6.6,0,0,0,.4.148l.079,0a7.368,7.368,0,0,0,2.122-1.211c1.218-.807,4.071-2.692,4.7-2.5a8.228,8.228,0,0,1,.382,1.354c.092.446.172.831.535,1.018a.947.947,0,0,0,.839-.04,4.78,4.78,0,0,0,.906-.626c.677-.539,1.516-1.212,2.118-.947a7.7,7.7,0,0,0,8.631-1.1.55.55,0,0,0,.189-.415A.542.542,0,0,0,221.18,301.478Z" transform="translate(0)" fill="url(#linear-gradient)"/>
    <path id="Path_2100" data-name="Path 2100" d="M275.313,387.971l.131-.15-.191.066a.615.615,0,0,0-.15-.127c-.217-.131-.874-.523-3.947,1.956a33.28,33.28,0,0,0-5.452,5.606,20.727,20.727,0,0,0-1.325,1.992c-2.63,2.241-4.794,3.657-5.635,3.657h-.01a11.707,11.707,0,0,1,2.441-3.722.55.55,0,0,0,.013-.713.538.538,0,0,0-.145-.123,3.159,3.159,0,0,0,2.478.036.537.537,0,0,0,.26-.382.547.547,0,0,0-.1-.415l-.034-.042a.545.545,0,0,0-.672-.107c-.519.3-1.62-.058-2.479-.549a.546.546,0,1,0-.539.949,7.643,7.643,0,0,0,.925.445c-.037-.008-.1,0-.11-.011a.544.544,0,0,0-.414.191c-.148.172-.3.351-.447.532a.526.526,0,0,0-.152.064,57.089,57.089,0,0,1-4.868,3.579c.357-.48.81-1.043,1.141-1.453a14.445,14.445,0,0,0,1.627-2.235.643.643,0,0,0-.073-.707l.046-.071-.076.039c-.013-.013-.025-.024-.039-.035-.477-.4-.846-.255-5.456,2.846-.446.3-.883.594-1.291.866.5-.568,1.074-1.212,1.675-1.876l.127-.125a.515.515,0,0,0,.038-.057c1.228-1.355,2.548-2.783,3.546-3.864,2.247-2.434,3.112-3.379,3.284-3.646a.734.734,0,0,0,.074-.825l.082-.1-.121.043c-.012-.015-.023-.029-.033-.04-.257-.277-.661-.344-1.807.232a.561.561,0,0,0-.276.7.549.549,0,0,0,.312.309l.046.016c-.632.7-1.535,1.676-2.364,2.574-1.531,1.658-2.747,2.983-3.717,4.053a32.263,32.263,0,0,1-3.278,2.874c-1.118.85-1.783,1.023-2.03.9-.173-.084-.284-.419-.294-.9a2.765,2.765,0,0,0-.43-1.48c1.1-.3,2.3-.8,2.658-1.574a1.21,1.21,0,0,0-.071-1.141.919.919,0,0,0-.657-.446c-.726-.12-1.9.523-3.5,1.729.684-.762,1.387-1.543,2.053-2.283l.1-.116c3.606-4.006,5.207-5.8,5.413-6.127a.69.69,0,0,0-.008-.851c-.271-.323-.78-.412-2.4.2a.557.557,0,0,0-.35.655.547.547,0,0,0,.719.374c.147-.055.294-.106.434-.152-.966,1.107-2.786,3.129-4.56,5.1l-.063.07c-1.115,1.238-2.25,2.5-3.257,3.626a33.85,33.85,0,0,1-3.824,3.08,22.363,22.363,0,0,1,1.055-2.355c.215-.434.384-.777.461-.978a.594.594,0,0,0-.159-.7l.057-.112-.1.083c-.424-.293-.638-.1-2.015,1.134-.789.709-3.1,2.782-3.838,2.931a9,9,0,0,1,2.825-3.489c.643-.384,1.007-.272,1.134-.207a.56.56,0,0,0,.619-.075.549.549,0,0,0,.179-.476.536.536,0,0,0-.281-.41,2.169,2.169,0,0,0-2.211.231,4.9,4.9,0,0,0-.714.554.548.548,0,0,0-.266.118c-.584.493-1.48,1.227-2.428,1.923-2.674,1.965-3.313,1.842-3.314,1.869-.009-.023-.083-.244.164-.977a18.9,18.9,0,0,1,2.142-4.179c1.91-1.606,5.128-4.454,5.51-5.714.253-.846-.236-1.071-.392-1.12-.369-.117-.8.017-1.844,1.026a27.252,27.252,0,0,0-2.286,2.588c-.432.547-1.089,1.415-1.782,2.461q-.629.529-1.311,1.079a1.238,1.238,0,0,0-.559-.321,5.161,5.161,0,0,0-4.188,1.262.537.537,0,0,0-.23.1c-5.014,4.178-9.4,7.357-10.235,7.278-.42-.854.338-4.6,3.227-8.431.207-.276.419-.545.632-.808.28-.2,2.145-1.544,3.978-2.941,4.243-3.235,4.228-3.608,4.213-3.971a.62.62,0,0,0-.086-.29l.13-.15-.191.066a.62.62,0,0,0-.151-.127c-.217-.129-.871-.523-3.947,1.956a32.92,32.92,0,0,0-2.864,2.615.545.545,0,0,0-.434.229,16.9,16.9,0,0,1-11.928,6.8c1.962-2.516,4.526-5.537,6.642-8.03a80.564,80.564,0,0,0,5.26-6.516c.278-.479.159-.774.022-.932l.041-.064-.069.033c-.012-.012-.024-.023-.036-.033-.38-.33-.609-.526-4.661,2.436-2.208,1.614-5.009,3.771-7.717,5.857-.834.642-1.654,1.274-2.44,1.876a8.5,8.5,0,0,0-2.464-2.957c-2.756-2.087-5.245-2.405-6.658-.851-1.374,1.511-1.268,4.731,1.284,7.5a6.863,6.863,0,0,0,1.285,1.078c-3.905,2.478-9.188,5.028-12.777,5.028a5.663,5.663,0,0,1-1.676-.229,3.142,3.142,0,0,1-2.094-2.014c-1.907-5.174,7.641-9.654,8.737-10.148a.546.546,0,0,0-.449-1,29.39,29.39,0,0,0-5.352,3.142c-3.6,2.737-4.972,5.636-3.96,8.381a4.184,4.184,0,0,0,2.793,2.678c4.961,1.547,13.775-3.883,15.858-5.237a14.03,14.03,0,0,0,5.445,1.22c-.043.435-.106.866-.187,1.287a5.521,5.521,0,0,0-1.013,2.208c-.014.205-.057.829.468.969a.609.609,0,0,0,.158.022c.433,0,.657-.454.755-.652a9.827,9.827,0,0,0,.655-2.119c.327-.5.746-1.084,1.246-1.752l.163-.011a19.6,19.6,0,0,0,9.1-3.046c-1.7,2.957-2.565,6.081-1.911,7.407a1.115,1.115,0,0,0,1.012.664c1.139,0,4.638-2.556,7.766-5.035-.077.2-.148.394-.208.6a.669.669,0,0,0,.435.883c.273.082.648.193,3.046-1.435q.3-.2.623-.431c-.9,1.087-.921,1.531-.825,1.8a.647.647,0,0,0,.11.2l-.27.474.435-.33a.705.705,0,0,0,.272.1l.079.006c.45,0,1.186-.619,2.187-1.841.091-.111.192-.238.3-.377a1.492,1.492,0,0,0,.391,1.647c.512.338,1.421.4,4.2-1.574a1.862,1.862,0,0,0-.181.987.919.919,0,0,0,.775.755c.934.167,2.39-.988,4.332-2.715-.645,1.4-.837,2.139-.542,2.592a.756.756,0,0,0,.668.333h0a2.193,2.193,0,0,0,.852-.349.466.466,0,0,0,.127.358l.257.338.392-.149a8.006,8.006,0,0,0,1.482-1.183c.621-.537,1.756-1.517,2.891-2.415l.345.157a1.4,1.4,0,0,1,.674,1.308c.025,1.184.509,1.663.91,1.857a2.359,2.359,0,0,0,2.223-.379.447.447,0,0,0,.105.44l-.192.247.265-.159a.579.579,0,0,0,.406.164.766.766,0,0,0,.3-.067,39.776,39.776,0,0,0,3.712-2.357c.9-.6,2-1.348,2.9-1.92l-.4.493c-1.636,2.028-2.184,2.759-1.843,3.348a.725.725,0,0,0,.791.323,14.288,14.288,0,0,0,3.867-2.358,2.147,2.147,0,0,0-.272,1.564.974.974,0,0,0,.852.617,1.56,1.56,0,0,0,.168.01c1.043,0,2.758-1.077,4.434-2.361-.927,2.187-1.295,4.192-.805,5.187a1.115,1.115,0,0,0,1.012.664c1.553,0,7.5-4.752,10.9-7.584h0a.546.546,0,0,0-.7-.839c-5.014,4.178-9.408,7.357-10.235,7.278-.344-.7.1-3.332,1.854-6.361l.1-.084a.545.545,0,0,0,.181-.38c.325-.529.686-1.066,1.094-1.606.207-.276.419-.545.632-.808.28-.2,2.145-1.544,3.978-2.941,4.245-3.237,4.228-3.61,4.213-3.969A.615.615,0,0,0,275.313,387.971Zm-28.037,8.69a.089.089,0,0,1-.011.049h0a3.627,3.627,0,0,1-1.847.945A5.08,5.08,0,0,1,247.276,396.66Zm-20.53,2.932c.4-.294.826-.608,1.26-.938a14.071,14.071,0,0,1-.854,1.165.566.566,0,0,0-.073-.082A.541.541,0,0,0,226.746,399.592Zm1.427-2.831a1.809,1.809,0,0,1,.431.049,49.856,49.856,0,0,1-5.382,3.821C224.324,398.132,226.755,396.762,228.173,396.762Zm-31.294.177c-2.128-2.314-2.321-4.882-1.279-6.029a1.93,1.93,0,0,1,1.5-.616,6.6,6.6,0,0,1,3.691,1.6,7.441,7.441,0,0,1,2.239,2.764c-1.925,1.471-3.193,2.414-4.092,3.046q-.269.189-.567.391A6.115,6.115,0,0,1,196.879,396.939Zm6.568-1.223a10.9,10.9,0,0,1,.5,3q.013.4,0,.779a13.6,13.6,0,0,1-4.44-.852l.053-.038C200.437,397.987,201.643,397.091,203.447,395.716Zm1.6,3.779c.007-.316,0-.63-.008-.939a11.723,11.723,0,0,0-.673-3.54c.851-.653,1.748-1.344,2.684-2.065,3.273-2.521,7.515-5.787,9.8-7.336-1,1.268-2.567,3.116-4.2,5.039-2.645,3.117-5.381,6.363-7.255,8.827C205.277,399.488,205.159,399.492,205.042,399.5Z" transform="translate(-69.258 -74.7)" fill="url(#linear-gradient)"/>
  </g>
</svg>
