<svg xmlns="http://www.w3.org/2000/svg" width="26" height="26" viewBox="0 0 26 26">
  <g id="Mobile_-_icon" data-name="Mobile - icon" transform="translate(5)">
    <rect id="Rectangle_6624" data-name="Rectangle 6624" width="26" height="26" transform="translate(-5)" fill="#c99200" opacity="0"/>
    <g id="Group_7936" data-name="Group 7936" transform="translate(-3 4)">
      <path id="Path_20235" data-name="Path 20235" d="M129.914,213.3c-2.766,0-5.532.006-8.3,0a2.658,2.658,0,0,1-2.693-2.664q0-6.334,0-12.668a2.649,2.649,0,0,1,2.668-2.654q8.317-.019,16.634,0a2.663,2.663,0,0,1,2.692,2.672q.008,6.353,0,12.705a2.657,2.657,0,0,1-2.668,2.612C135.472,213.31,132.693,213.3,129.914,213.3Zm-.032-1.78v.005q4.053,0,8.106,0c.78,0,1.115-.33,1.122-1.1,0-.339,0-.679,0-1.018q-.011-3.651-.021-7.3c0-1.343.018-2.687.014-4.03a.927.927,0,0,0-1-1c-.115,0-.23,0-.346,0H122.005c-.974,0-1.285.3-1.285,1.262q0,2.856,0,5.712,0,3.167,0,6.334c0,.809.339,1.137,1.169,1.137Z" transform="translate(-118.922 -195.307)" fill="#c99200"/>
      <path id="Path_20237" data-name="Path 20237" d="M280.129,238.453q0-3.356,0-6.711c0-.583.1-.677.731-.68,1.122-.006,1.118-.006,1.124,1.012.007,1.151.035,2.3.034,3.453,0,1.824-.02,3.648-.036,5.472,0,.4-.14.531-.565.54-1.449.032-1.284-.024-1.287-1.115C280.128,239.767,280.129,239.11,280.129,238.453Z" transform="translate(-263.645 -227.295)" fill="#c99200"/>
      <path id="Path_20238" data-name="Path 20238" d="M156.578,236.262q0,2.32,0,4.641c0,.482-.125.6-.65.608-1.191.029-1.2.023-1.2-1.091q0-2.722,0-5.444c0-1.119,0-2.239,0-3.358,0-.455.138-.58.633-.589,1.35-.025,1.216.043,1.213,1.071,0,1.387,0,2.775,0,4.162Z" transform="translate(-151.069 -227.263)" fill="#c99200"/>
      <path id="Path_20239" data-name="Path 20239" d="M201.218,235.358c0,1.181,0,2.362,0,3.543,0,.514-.143.655-.653.665-1.213.024-1.221.016-1.221-1.214q0-3.253,0-6.507c0-.652.125-.774.79-.775,1.085,0,1.085,0,1.085,1.1Q201.218,233.764,201.218,235.358Z" transform="translate(-191.121 -227.613)" fill="#c99200"/>
      <path id="Path_20240" data-name="Path 20240" d="M182.359,235.441q0,1.814,0,3.628c0,.4-.166.613-.452.612s-.465-.235-.466-.614q-.006-3.608,0-7.215c0-.053,0-.105,0-.158.027-.286.173-.491.467-.485.31.006.457.2.455.524C182.355,232.97,182.359,234.206,182.359,235.441Z" transform="translate(-175.035 -227.738)" fill="#c99200"/>
      <path id="Path_20241" data-name="Path 20241" d="M244.269,235.427c0-1.209,0-2.418,0-3.627,0-.327.129-.559.466-.557s.464.252.464.566q0,3.668,0,7.336c0,.317-.136.559-.475.556s-.454-.252-.453-.57C244.271,237.9,244.269,236.662,244.269,235.427Z" transform="translate(-231.435 -227.767)" fill="#c99200"/>
      <path id="Path_20242" data-name="Path 20242" d="M262.253,237c0-1.733,0-3.466,0-5.2,0-.324.108-.564.452-.567s.466.244.469.56c0,.079,0,.158,0,.237q0,.572,0,1.145,0,2.779,0,5.558c0,.092,0,.184,0,.276-.006.45-.169.691-.467.694s-.45-.223-.451-.692Q262.251,238.011,262.253,237Z" transform="translate(-247.577 -227.764)" fill="#c99200"/>
      <path id="Path_20243" data-name="Path 20243" d="M227.2,235.473q0,1.755,0,3.51c0,.118.032.275-.029.345-.132.152-.312.351-.479.357-.135,0-.288-.236-.412-.386-.04-.048-.012-.153-.012-.231q0-3.569,0-7.138c0-.053,0-.105,0-.158,0-.31.148-.522.463-.523s.465.22.468.522c.006.736,0,1.472,0,2.208Q227.2,234.726,227.2,235.473Z" transform="translate(-215.27 -227.771)" fill="#c99200"/>
      <path id="Path_20244" data-name="Path 20244" d="M182.5,319.2c-.24.41-.756.51-.958.084a1.811,1.811,0,0,1,.022-1.663.661.661,0,0,1,.5-.284.6.6,0,0,1,.438.307A2.293,2.293,0,0,1,182.5,319.2Zm-.474-1.505a1.352,1.352,0,0,0-.01,1.505A1.443,1.443,0,0,0,182.03,317.695Z" transform="translate(-174.966 -305.139)" fill="#c99200"/>
      <path id="Path_20245" data-name="Path 20245" d="M258.893,319.23h-.38l-.038-.491-.373-.02-.4-.024a5,5,0,0,1,.743-1.6c.042-.08.253-.07.447-.116,0,.366-.016.678.007.987C258.912,318.107,258.893,319.23,258.893,319.23Zm-.421-.9v-.6l-.054-.015-.3.616Z" transform="translate(-243.499 -304.814)" fill="#c99200"/>
      <path id="Path_20246" data-name="Path 20246" d="M219.926,317.34c.071-.084.136-.235.24-.272a.605.605,0,0,1,.847.71,6.082,6.082,0,0,1-.5,1.114l.52.036c.069.417-.04.45-1.175.335a2.3,2.3,0,0,1,.156-.448,7.082,7.082,0,0,0,.426-.612,1.066,1.066,0,0,0,.11-.653C220.52,317.45,220.2,317.426,219.926,317.34Z" transform="translate(-209.525 -304.858)" fill="#c99200"/>
      <path id="Path_20247" data-name="Path 20247" d="M238.888,319.046c.11-.048.224-.089.33-.145.145-.078.284-.168.425-.253-.095-.134-.185-.272-.286-.4-.05-.064-.145-.1-.169-.173-.015-.042.063-.12.1-.179.091-.13.185-.257.278-.385l-.533-.244c.014-.029.038-.183.116-.218a.582.582,0,0,1,.751.143.543.543,0,0,1-.119.8c.329.437.376.746.158,1.02S239.368,319.341,238.888,319.046Z" transform="translate(-226.611 -304.814)" fill="#c99200"/>
      <path id="Path_20248" data-name="Path 20248" d="M202.166,316.8c.015.191.03.293.031.4,0,.613,0,1.227,0,1.866l-.406.048V317.3l-.383.128-.11-.333Z" transform="translate(-192.866 -304.663)" fill="#c99200"/>
    </g>
  </g>
</svg>
