<svg id="quotation-marks" xmlns="http://www.w3.org/2000/svg" width="70" height="54" viewBox="0 0 70 54">
  <path id="Path_2102" data-name="Path 2102" d="M15.21,71.748c-.848,5.33-7.511,11.024-12.72,11.145a1.376,1.376,0,0,0-.969.363,1,1,0,0,0-.606.606C-.9,87.254.068,89.919,3.1,92.1c3.513,2.544,9.085,0,11.872-2.3,7.026-5.815,14.173-15.869,13.81-25.439A40.061,40.061,0,0,0,27.93,45.34c-1.211-3.634-4.724-5.451-8.359-5.694s-11.145-1.333-14.416.848S1.643,46.915,1.279,50.549c-.363,4-1.454,11.508,1.938,14.658C6.609,68.235,16.3,64.964,15.21,71.748Z" transform="translate(40.474 -39.159)" fill="#c99200"/>
  <path id="Path_2103" data-name="Path 2103" d="M217.17,71.748c-.848,5.33-7.51,11.024-12.72,11.145a1.376,1.376,0,0,0-.969.363,1,1,0,0,0-.606.606c-1.817,3.392-.848,6.057,2.18,8.237,3.513,2.544,9.085,0,11.872-2.3,7.026-5.815,14.173-15.869,13.81-25.439a40.064,40.064,0,0,0-.848-19.019c-1.211-3.634-4.724-5.451-8.359-5.694s-11.145-1.333-14.416.848-3.513,6.421-3.876,10.055c-.363,4-1.454,11.508,1.938,14.658C208.57,68.235,218.382,64.964,217.17,71.748Z" transform="translate(-201.96 -39.159)" fill="#c99200"/>
</svg>
