<svg xmlns="http://www.w3.org/2000/svg" width="444" height="284" viewBox="0 0 444 284">
  <path id="Path_2101" data-name="Path 2101" d="M3.2,53.742C8.958,43,29.483,18.356,44.254,6.944S81.564-11.468,104.1-15.3s45.847-3.548,71.36,0,64.07,12.179,89.775,18.412,50.45,6.521,76.731,16.878,54.958,30.975,61.385,40.66,18.511,21.481,19.375,47.373-8.92,52.072-15.826,67.607-13.524,26.468-39.612,49.962-78.937,35.77-96.681,38.359-43.928,2.685-87.473,0-56.973-3.548-97.448-10.74-54.575-15.439-65.221-22.632-26.76-25.317-30.692-32.6-9.591-18.988-10.742-42.962a220.666,220.666,0,0,1,3.837-52.935C-15.212,92.484-2.552,64.482,3.2,53.742Z" transform="translate(21.218 18.074)" fill="#ecb7bf" opacity="0.3"/>
</svg>
