<svg xmlns="http://www.w3.org/2000/svg" width="16" height="18" viewBox="0 0 16 18">
  <path id="user" d="M15.111,18a.9.9,0,0,1-.889-.9V15.3a2.687,2.687,0,0,0-2.667-2.7H4.444a2.687,2.687,0,0,0-2.666,2.7v1.8a.9.9,0,0,1-.889.9A.9.9,0,0,1,0,17.1V15.3a4.478,4.478,0,0,1,4.444-4.5h7.111A4.478,4.478,0,0,1,16,15.3v1.8A.9.9,0,0,1,15.111,18ZM8,9A4.5,4.5,0,0,1,8,0a4.477,4.477,0,0,1,4.444,4.5A4.477,4.477,0,0,1,8,9ZM8,1.8a2.7,2.7,0,1,0,2.666,2.7A2.687,2.687,0,0,0,8,1.8Z" transform="translate(0)" fill="#c99200"/>
</svg>
