<svg xmlns="http://www.w3.org/2000/svg" xmlns:xlink="http://www.w3.org/1999/xlink" width="67" height="62" viewBox="0 0 67 62">
  <defs>
    <clipPath id="clip-path">
      <rect id="Rectangle_84" data-name="Rectangle 84" width="67" height="62" transform="translate(-0.018 0.202)"/>
    </clipPath>
  </defs>
  <g id="Icon_Gadgets" transform="translate(0.018 -0.202)">
    <path id="Path_31" data-name="Path 31" d="M274.492,226,269,246.575l8.19,3.184,2.148-1.765,5.492,1.765L290,234.085l-4.959-3.58-2.035-2.524Z" transform="translate(-225.486 -189.333)" fill="#e8d4e7"/>
    <path id="Path_32" data-name="Path 32" d="M26.508,226,32,246.575l-8.19,3.184-2.148-1.765-5.492,1.765L11,234.085l4.959-3.58,2.035-2.524Z" transform="translate(-9.163 -189.333)" fill="#e8d4e7"/>
    <g id="Group_209" data-name="Group 209" transform="translate(0 0)">
      <path id="Path_33" data-name="Path 33" d="M313.366,266.984a1.3,1.3,0,0,0-1.583.94,1.335,1.335,0,0,0,.9,1.617,1.3,1.3,0,0,0,1.583-.924,1.326,1.326,0,0,0-.9-1.633Zm0,0" transform="translate(-261.322 -223.519)"/>
      <g id="Group_208" data-name="Group 208">
        <g id="Group_206" data-name="Group 206" clip-path="url(#clip-path)">
          <path id="Path_34" data-name="Path 34" d="M83.382,269.541a1.323,1.323,0,0,0-.678-2.557,1.323,1.323,0,0,0,.678,2.557Zm0,0" transform="translate(-68.477 -223.519)"/>
        </g>
        <g id="Group_207" data-name="Group 207" clip-path="url(#clip-path)">
          <path id="Path_35" data-name="Path 35" d="M64.688,42.938a32.113,32.113,0,0,0-8.4-32.7A33.14,33.14,0,0,0,33.091.6,33.263,33.263,0,0,0,.04,33.566a32.183,32.183,0,0,0,1.454,9.372A4.053,4.053,0,0,0,.137,47.079L3.481,59.817a3.881,3.881,0,0,0,4.749,2.8l3.958-1.089a3.827,3.827,0,0,0,4.2,1.584l4.992-1.369A3.976,3.976,0,0,0,24.126,56.9L19.441,39.061a3.875,3.875,0,0,0-4.749-2.8L9.7,37.642a4.057,4.057,0,0,0-1.405.709A23.775,23.775,0,0,1,7.81,34.7a3.835,3.835,0,0,0,2.649-3.333C11.526,20.218,21.67,11.143,33.075,11.143s21.549,9.075,22.615,20.229A3.878,3.878,0,0,0,58.34,34.7a23.777,23.777,0,0,1-.485,3.646,3.559,3.559,0,0,0-1.405-.709l-4.992-1.369a3.883,3.883,0,0,0-4.749,2.8L42.024,56.913a3.983,3.983,0,0,0,2.746,4.851l4.992,1.369a3.845,3.845,0,0,0,4.2-1.584l3.958,1.089a3.868,3.868,0,0,0,4.749-2.8L66.013,47.1a3.993,3.993,0,0,0-1.325-4.158ZM10.363,40.183l4.992-1.369a1.3,1.3,0,0,1,1.583.94L21.622,57.59a1.335,1.335,0,0,1-.9,1.617l-1.244.346-2.342-8.91a1.29,1.29,0,0,0-1.583-.94,1.323,1.323,0,0,0-.921,1.617l2.342,8.91-1.244.346a1.3,1.3,0,0,1-1.583-.94h0L9.458,41.8a1.3,1.3,0,0,1,.9-1.617ZM11.3,59.042,7.552,60.065a1.3,1.3,0,0,1-1.583-.94L2.625,46.386A1.325,1.325,0,0,1,3.449,44.8c.032-.016.065-.016.081-.033l3.683-1.006c.4.957-.291-1.237,4.087,15.279ZM2.657,34.886H5.242a27.24,27.24,0,0,0,1.131,6.385l-2.488.676a30.782,30.782,0,0,1-1.228-7.062Zm55.618-3.762C57.047,18.354,45.707,8.52,33.091,8.52S9.119,18.354,7.907,31.124a1.27,1.27,0,0,1-1.26,1.122H2.657A30.839,30.839,0,0,1,33.091,3.24,30.828,30.828,0,0,1,63.525,32.246h-3.99a1.282,1.282,0,0,1-1.26-1.122Zm5.25,3.762a29.988,29.988,0,0,1-1.244,7.062l-2.488-.676a27.24,27.24,0,0,0,1.131-6.385ZM52.056,59.636h0a1.29,1.29,0,0,1-1.583.94l-1.244-.346,2.342-8.91A1.331,1.331,0,0,0,50.65,49.7a1.3,1.3,0,0,0-1.583.94l-2.342,8.91-1.244-.347a1.323,1.323,0,0,1-.921-1.617l4.685-17.836a1.294,1.294,0,0,1,1.244-.973,1.206,1.206,0,0,1,.339.049L55.82,40.2a1.323,1.323,0,0,1,.921,1.617Zm11.5-13.249L60.214,59.124a1.29,1.29,0,0,1-1.583.94l-3.748-1.023c4.378-16.516,3.683-14.305,4.055-15.279,3.925,1.072,3.7,1.006,3.78,1.039a1.343,1.343,0,0,1,.84,1.584Zm0,0" transform="translate(0.052 -1.123)"/>
        </g>
      </g>
    </g>
  </g>
</svg>
