<svg id="Icon_Gaming" xmlns="http://www.w3.org/2000/svg" width="75.867" height="49.09" viewBox="0 0 75.867 49.09">
  <path id="Path_40" data-name="Path 40" d="M56.061,47.2,52.3,50.063,50.58,52.041,46.8,53.787l.354,3.188,3.307,1.746,3.26,4.725,2.882.512,2.788-2.327,1.228-2.095,3.425-1.676L64.754,55l-2.835-2.514-1.89-1.606-.709-2.514L58.258,47.2Z" transform="translate(-35.75 -36.221)" fill="#e8d4e7"/>
  <path id="Path_41" data-name="Path 41" d="M5.927,48.874a9.366,9.366,0,0,0,6.048-.652c3.685-1.49,7.938-4.655,12.1-8.472,2.929-2.793,8.41-4.189,13.891-4.189s10.961,1.4,13.891,4.189c4.158,3.817,8.41,6.982,12.1,8.472a10.022,10.022,0,0,0,6.048.652,7.02,7.02,0,0,0,4.536-4.282c1.039-2.327,1.512-5.772,1.323-10.613a68.808,68.808,0,0,0-2.079-13.5A51.328,51.328,0,0,0,69.522,9.122c-6.615-11.451-13.8-9.682-22.4-7.448A62.374,62.374,0,0,1,38.433,3.35h-.945a62.374,62.374,0,0,1-8.694-1.676c-8.6-2.141-15.781-4-22.4,7.541A47.019,47.019,0,0,0,2.147,20.573a68.809,68.809,0,0,0-2.079,13.5c-.189,4.748.283,8.192,1.323,10.613A7.121,7.121,0,0,0,5.927,48.874ZM3.564,34.164A63.333,63.333,0,0,1,5.549,21.317,44.012,44.012,0,0,1,9.518,10.8c5.2-9.216,11.245-7.727,18.427-5.865A56.172,56.172,0,0,0,37.2,6.7h1.417a55.478,55.478,0,0,0,9.355-1.769C55.159,3.164,61.207,1.581,66.4,10.8a42.532,42.532,0,0,1,3.969,10.52,69.494,69.494,0,0,1,1.984,12.847c.189,4.282-.189,7.168-1.039,9.123a3.719,3.719,0,0,1-2.268,2.327,6.616,6.616,0,0,1-3.874-.465c-3.307-1.3-7.182-4.189-10.961-7.727-3.591-3.538-9.922-5.306-16.253-5.306S25.3,33.885,21.613,37.237c-3.874,3.538-7.749,6.517-10.961,7.727a5.942,5.942,0,0,1-3.874.465A3.719,3.719,0,0,1,4.509,43.1C3.753,41.333,3.376,38.447,3.564,34.164Z" transform="translate(-0.027 -0.028)"/>
  <path id="Path_42" data-name="Path 42" d="M46.5,55.633a4.937,4.937,0,0,0,1.606,3.351,5.393,5.393,0,0,0,3.874,1.583h0a5.622,5.622,0,0,0,3.874-1.583h0a5.622,5.622,0,0,0,1.606-3.351,5.072,5.072,0,0,0,3.4-1.583,5.234,5.234,0,0,0,1.606-3.817h0a5.456,5.456,0,0,0-1.606-3.817h0a5.778,5.778,0,0,0-3.4-1.583,5.263,5.263,0,0,0-1.512-3.258l-.094-.093A5.393,5.393,0,0,0,51.983,39.9h0a5.622,5.622,0,0,0-3.874,1.583A5.379,5.379,0,0,0,46.5,44.834a5.669,5.669,0,0,0-3.4,1.49l-.094.093A5.234,5.234,0,0,0,41.4,50.234h0a5.456,5.456,0,0,0,1.606,3.817A5.3,5.3,0,0,0,46.5,55.633Zm-1.606-5.4a1.88,1.88,0,0,1,.567-1.4l.094-.093a2.279,2.279,0,0,1,1.323-.465H48.2A1.781,1.781,0,0,0,50,46.51v-1.3a1.88,1.88,0,0,1,.567-1.4,1.938,1.938,0,0,1,1.417-.559h0a1.938,1.938,0,0,1,1.417.559l.095.093a2.2,2.2,0,0,1,.472,1.3v1.3a1.781,1.781,0,0,0,1.8,1.769h1.323a1.938,1.938,0,0,1,1.417.559h0a1.88,1.88,0,0,1,.567,1.4h0a1.88,1.88,0,0,1-.567,1.4,1.938,1.938,0,0,1-1.417.559H55.763a1.781,1.781,0,0,0-1.8,1.769v1.21a1.88,1.88,0,0,1-.567,1.4h0a1.938,1.938,0,0,1-1.417.559h0a1.938,1.938,0,0,1-1.417-.559,1.88,1.88,0,0,1-.567-1.4v-1.3A1.781,1.781,0,0,0,48.2,52.1H46.881a1.938,1.938,0,0,1-1.417-.559,1.873,1.873,0,0,1-.567-1.3Z" transform="translate(-31.626 -30.62)"/>
  <ellipse id="Ellipse_17" data-name="Ellipse 17" cx="3.307" cy="3.258" rx="3.307" ry="3.258" transform="translate(51.068 9.745)"/>
  <ellipse id="Ellipse_18" data-name="Ellipse 18" cx="3.307" cy="3.258" rx="3.307" ry="3.258" transform="translate(51.068 22.965)"/>
  <ellipse id="Ellipse_19" data-name="Ellipse 19" cx="3.307" cy="3.258" rx="3.307" ry="3.258" transform="translate(44.359 16.355)"/>
  <ellipse id="Ellipse_20" data-name="Ellipse 20" cx="3.307" cy="3.258" rx="3.307" ry="3.258" transform="translate(57.777 16.355)"/>
</svg>
