<svg xmlns="http://www.w3.org/2000/svg" width="80.627" height="38.074" viewBox="0 0 80.627 38.074">
  <g id="Icon_Mens_Shoe" data-name="Icon_Mens Shoe" transform="translate(0)">
    <path id="Path_47" data-name="Path 47" d="M94.7,163.8l-.458,2.872-7.678,3.32-10.068,1.84-7.9.568H22.37l-2.17-.447v-6.6H31.862l8.034.86,12.526.12,7.153.688,7.763-.12,3.509-.568,7-.344,7.068-.636h4.577Z" transform="translate(-17.488 -135.633)" fill="#e8d4e7"/>
    <path id="Path_48" data-name="Path 48" d="M4.6,1.549a11.967,11.967,0,0,1,3.305.533,1.374,1.374,0,0,1,.932,1.376V7.053a14.72,14.72,0,0,0,8.848,2.425,10.681,10.681,0,0,0,2.051-.1L28.622.861A3.348,3.348,0,0,1,31.063.052c4.814,0,15.814,5.5,21.611,8.961,6.882,4.128,20.849,6.519,20.984,6.553l.288.086c7.068,2.958,7.238,8.875,6.305,11.7C78.3,37.514,56.217,38.116,51.183,38.116H2.74A1.37,1.37,0,0,1,1.383,36.74V29.413A6.027,6.027,0,0,1,.027,26.489V5.642C.078,3.062,1.79,1.549,4.6,1.549ZM58.641,14.621l-1.8,3.3a1.351,1.351,0,0,1-1.865.516,1.392,1.392,0,0,1-.509-1.892l1.593-2.924a31.989,31.989,0,0,1-3.271-1.462L50.522,15.67a1.354,1.354,0,0,1-1.865.43,1.4,1.4,0,0,1-.424-1.892c0-.017.017-.017.017-.034l2.136-3.32c-.983-.568-1.983-1.135-3.017-1.686l-2.712,4.025a1.341,1.341,0,0,1-1.864.447,1.384,1.384,0,0,1-.441-1.892.523.523,0,0,1,.085-.12l2.542-3.715c-1.2-.6-2.424-1.2-3.61-1.737L38.2,10.854a1.334,1.334,0,0,1-1.881.378,1.379,1.379,0,0,1-.373-1.909c0-.017.017-.017.017-.034l2.814-4.128a25.242,25.242,0,0,0-7.712-2.27,1.622,1.622,0,0,0-.576,0L25.063,8.05A43.069,43.069,0,0,0,46.42,23.513a57.418,57.418,0,0,1,11.543-2.528A16.336,16.336,0,0,0,67.455,17.1a80.265,80.265,0,0,1-8.814-2.477Zm14.424,3.646c-.339,0-1.2-.224-2.407-.464A19.62,19.62,0,0,1,58.047,23.72c-4.458.224-13.865,3.268-20.34,5.5H43.64c24.561.1,31.934-1.875,34.137-3.251C78.1,24.735,78.54,20.607,73.065,18.267ZM4.1,35.347H50.539c5.966.086,20.187-.86,25.289-5.607-4.238,1.135-13.035,2.322-32.239,2.322-4.509,0-9.051,0-13.357-.172-4.068-.1-7.9-.224-11.34-.361-8.322-.31-14.136-.654-14.2-.671a3.223,3.223,0,0,1-.576,0ZM2.74,26.162c.085.4.508,1.978,2.034,1.978.1,0,5.068.31,12.374.6C14.537,19.3,6.231,16.186,2.74,15.292Zm0-13.691c3.593.86,14.458,4.42,17.255,16.392,3.085.1,6.475.224,10.017.31,1.2-.464,6.339-2.391,12.085-4.266a46.289,46.289,0,0,1-18.984-14.9l-1.763,1.72a1.467,1.467,0,0,1-.729.361,19.865,19.865,0,0,1-2.865.172c-3.254,0-7.831-.636-11.119-3.629A1.365,1.365,0,0,1,6.2,7.62V4.456a8.817,8.817,0,0,0-1.526-.172c-1.865,0-1.881.826-1.9,1.376Z" transform="translate(-0.027 -0.043)"/>
  </g>
</svg>
