<svg xmlns="http://www.w3.org/2000/svg" xmlns:xlink="http://www.w3.org/1999/xlink" width="66" height="53" viewBox="0 0 66 53">
  <defs>
    <clipPath id="clip-path">
      <rect id="Rectangle_86" data-name="Rectangle 86" width="66" height="53" transform="translate(0.213 -0.124)"/>
    </clipPath>
  </defs>
  <g id="Group_217" data-name="Group 217" transform="translate(-0.213 0.124)">
    <g id="Group_216" data-name="Group 216">
      <g id="Group_214" data-name="Group 214" clip-path="url(#clip-path)">
        <path id="Path_44" data-name="Path 44" d="M1.308,2.608A1.3,1.3,0,1,0,0,1.3a1.31,1.31,0,0,0,1.308,1.3Zm0,0" transform="translate(56.207 45.777)"/>
      </g>
      <g id="Group_215" data-name="Group 215" clip-path="url(#clip-path)">
        <path id="Path_45" data-name="Path 45" d="M.305,19.254a14.289,14.289,0,0,0,1.52,4.141,25.611,25.611,0,0,1,3.4,12.325V51.826a1.31,1.31,0,0,0,1.307,1.3h5.23a1.31,1.31,0,0,0,1.307-1.3V37.268a19.876,19.876,0,0,1,1.961-8.543l.114-.2A52.116,52.116,0,0,1,29.526,47.555a9.231,9.231,0,0,0,8.4,5.559H48.614a80.445,80.445,0,0,0,12.241-.619c1.5-.261,6.063-1.043,6.063-4.6,0-2.005-1.667-4.923-4.249-7.434a19.413,19.413,0,0,0-10.345-5.347,1.31,1.31,0,0,0-1.062.326,9.887,9.887,0,0,1-6.047,2.022c-3.138,0-6.439-1.777-7.714-4.141a.908.908,0,0,0-.082-.13L28.692,20.77A100.423,100.423,0,0,0,9.539.293,1.284,1.284,0,0,0,7.9.293,21.612,21.612,0,0,0,2.838,6.065,18.953,18.953,0,0,0,.305,19.221v.033ZM10.454,37.268V50.522H7.839v-14.8c0-.391-.016-.815-.033-1.255A30.184,30.184,0,0,0,3.7,21.308a51.523,51.523,0,0,1,9.381,5.608,21.226,21.226,0,0,0-2.631,10.352ZM5.094,7.385A18.758,18.758,0,0,1,8.738,3a97.932,97.932,0,0,1,17.83,19.27l8.678,12.357c1.732,3.163,5.916,5.461,9.985,5.461a13.089,13.089,0,0,0,7.289-2.266,17.062,17.062,0,0,1,8.351,4.532c2.272,2.2,3.465,4.467,3.465,5.559,0,1.125-2.108,1.712-3.89,2.022a76.54,76.54,0,0,1-11.8.587H37.959a6.62,6.62,0,0,1-6.014-3.994A54.834,54.834,0,0,0,2.773,18.047,16.359,16.359,0,0,1,5.094,7.385Zm0,0" transform="translate(-0.268 0.472)"/>
      </g>
    </g>
    <path id="Path_46" data-name="Path 46" d="M1.308,2.608H15.95A1.3,1.3,0,1,0,15.95,0H1.308a1.3,1.3,0,1,0,0,2.608Zm0,0" transform="translate(36.334 45.777)"/>
  </g>
</svg>
