<svg id="Icon_Devices" xmlns="http://www.w3.org/2000/svg" width="40.614" height="58.664" viewBox="0 0 40.614 58.664">
  <path id="Path_39" data-name="Path 39" d="M77.616,152.4v20.587l-5.416,1.1,1.32,6.713,2.708,2.152h1.726l3.689.516,1.726-.689,3.689-1.291,1.3-3.529v-2.84l-2.115-.775-3.216-.6v-2.926l.254-6.627-.762-7.4.846-3.443-.085-.947Z" transform="translate(-59.984 -126.165)" fill="#e8d4e7"/>
  <g id="Group_211" data-name="Group 211">
    <path id="Path_36" data-name="Path 36" d="M41.354,96a1.377,1.377,0,1,0,1.354,1.377A1.37,1.37,0,0,0,41.354,96Zm0,0" transform="translate(-33.234 -79.473)"/>
    <path id="Path_37" data-name="Path 37" d="M53.392,39.935A10.769,10.769,0,0,1,62.6,34.754,1.377,1.377,0,0,0,62.6,32a13.371,13.371,0,0,0-11.491,6.489,1.383,1.383,0,0,0,.44,1.893,1.318,1.318,0,0,0,1.845-.448Zm0,0" transform="translate(-42.293 -26.489)"/>
    <path id="Path_38" data-name="Path 38" d="M10.847,51.763a6.826,6.826,0,0,0,6.77,6.885h5.416a6.826,6.826,0,0,0,6.77-6.885V46.771a16.288,16.288,0,0,1,4.84-11.515,20.658,20.658,0,0,0,5.991-14.614A20.5,20.5,0,0,0,19.969-.014C9.357.176.422,9.092.032,19.867a20.645,20.645,0,0,0,5.788,15.2,16.947,16.947,0,0,1,5.026,11.722Zm16.247,0a4.109,4.109,0,0,1-4.062,4.131H17.616a4.109,4.109,0,0,1-4.062-4.131v-2.2H27.093ZM18.97,46.806V27.527h2.708V46.806ZM7.75,33.138a17.954,17.954,0,0,1,12.27-30.4,17.943,17.943,0,0,1,12.71,30.57,19.054,19.054,0,0,0-5.636,13.478v.034H24.386v-19.3H25.74a4.134,4.134,0,1,0-3.825-2.754H18.75a4.05,4.05,0,1,0-3.825,2.754h1.354V46.806H13.554v-.017a19.746,19.746,0,0,0-5.8-13.65ZM24.386,23.4a1.354,1.354,0,1,1,1.354,1.377A1.37,1.37,0,0,1,24.386,23.4Zm-8.123,0a1.354,1.354,0,1,1-1.354-1.377A1.37,1.37,0,0,1,16.262,23.4Zm0,0" transform="translate(-0.019 0.016)"/>
  </g>
</svg>
