<svg xmlns="http://www.w3.org/2000/svg" width="226.96" height="116.706" viewBox="0 0 226.96 116.706">
  <g id="Group_47200" data-name="Group 47200" transform="translate(-780.04 -23.294)">
    <text id="ASAL" transform="translate(878 124)" fill="#f4eccf" font-size="65" font-family="SegoeUI, Segoe UI"><tspan x="0" y="0"></tspan></text>
    <g id="Group_47196" data-name="Group 47196" transform="translate(582 -114.436)">
      <path id="Path_134230" data-name="Path 134230" d="M239.743,248.937a4.738,4.738,0,0,1,.238-1.84,4.714,4.714,0,0,0,.287-1.45,3.364,3.364,0,0,0-1.157.759c-1.259,1.037-2.518,1.076-2.659.078-.1-.74,1.624-2.754,3-3.519,1.118-.618,1.288-1.124,1.891-5.606.943-7.008,1.065-7.962,1.011-7.962-.029,0-1.473.258-3.2.569a39.008,39.008,0,0,1-7.54.569c-10.909,0-16.544-2.307-25.3-10.371-5.153-4.745-6.344-6.331-7.579-10.108a12.522,12.522,0,0,1-.7-4.755c0-4.414,1.123-7.641,3.564-10.3,1.24-1.348,1.4-1.431,2.645-1.436,1.191,0,1.356.068,1.59.715a8.5,8.5,0,0,0,3.5,4.054,5.34,5.34,0,0,0,5.139.078c1.8-.861,3.029-2.414,4.414-5.6a114.777,114.777,0,0,1,8.177-15.729,59.554,59.554,0,0,1,8.732-11.32,38.5,38.5,0,0,1,9.767-7.5l2.727-1.431-1.638-2.784c-.9-1.533-2.562-4.073-3.685-5.65-2.212-3.1-2.479-3.966-1.386-4.477.856-.4,1.813-.1,5.975,1.844l3.17,1.484.7-1.82c1.488-3.854,4.123-7.714,5.27-7.709.788,0,1.463,1.022,2.042,3.081a30.806,30.806,0,0,0,2.246,6.088c.335.457.467.307,1.5-1.742a19.953,19.953,0,0,1,3.257-4.55c1.877-2.039,2.222-2.3,2.946-2.224l.822.088-.029,2.059c-.015,1.134-.121,4.614-.238,7.738l-.214,5.679,1.035.18a42.628,42.628,0,0,1,7.954,2.063,27.458,27.458,0,0,1,11.911,9.894,22.878,22.878,0,0,1,2.679,6l.627,1.927,3.029-.054a31.57,31.57,0,0,0,4.283-.321c2.261-.477,2.873.273,2.193,2.7a18.154,18.154,0,0,1-6.626,9.5c-1.288.91-1.473,1.158-1.59,2.156-.724,6.108-1.347,8.706-3.053,12.8a27.232,27.232,0,0,1-5.742,8.434c-4.162,4.5-8.824,7.855-16.4,11.8l-3.632,1.888-.19,1.723a7.139,7.139,0,0,1-.433,2.034,11.4,11.4,0,0,0-.506,2.745c-.146,1.338-.564,4.064-.929,6.059l-.666,3.626,1.2,2.662c1.293,2.866,1.415,3.436.822,3.942-.569.482-1.3-.034-2.139-1.518-.394-.7-.783-1.2-.865-1.114a10.323,10.323,0,0,0-.442,2.01c-.262,1.65-.369,1.869-.929,1.951-.914.131-1.123-.414-.933-2.433l.165-1.786-.929,1.027c-.977,1.075-1.775,1.29-2.309.623s-.068-1.465,2.309-3.932l2.27-2.36.617-3.441c.34-1.893.773-5.061.967-7.037l.35-3.6-1.867.652c-2.479.861-9.072,2.613-13.034,3.46-1.755.375-3.442.74-3.743.808-.438.1-.53.287-.442.92a93.7,93.7,0,0,1-1.274,11.052c-.175.638-.141.861.165.983.729.292,3.855,4.579,3.773,5.173-.136,1-1.152.832-2.582-.419-.724-.633-1.429-1.076-1.57-.988a4.386,4.386,0,0,0-.583,1.606,7.1,7.1,0,0,1-.593,1.786,1.04,1.04,0,0,1-1.638-.185Z" transform="translate(0 0)" fill="#f4eccf"/>
      <path id="Path_134231" data-name="Path 134231" d="M239.115,247.216c3.87-.5,13.754-2.61,18.722-4a58.673,58.673,0,0,0,14.522-6.027c8.046-4.423,12.757-8.292,17.069-14.014,1.867-2.479,4.006-8.084,4.75-12.434.924-5.425.8-11.379-.311-15.394-1.857-6.679-2.878-8.827-5.64-11.87-4.3-4.734-9.125-7.218-16.048-8.268a64.708,64.708,0,0,0-12.966-.058,44.762,44.762,0,0,0-14.838,6.518,59.137,59.137,0,0,0-9.023,8.9,95.666,95.666,0,0,0-11.6,19.851c-1.92,4.5-2.659,5.814-4.06,7.209a7.585,7.585,0,0,1-5.338,2.3,5.735,5.735,0,0,1-3.491-.646,8.959,8.959,0,0,1-4.118-3.928l-.632-1.162-1.386,1.7a12.578,12.578,0,0,0-2.7,8.263c0,4.423,1.468,7.481,5.455,11.384,5.357,5.24,7.774,7.087,12.169,9.3,4.76,2.4,12.232,3.31,19.471,2.372Z" transform="translate(-2.046 -19.08)" fill="#fff" fill-rule="evenodd"/>
      <path id="Path_134232" data-name="Path 134232" d="M237.4,304.206c-1.482-.759-1.8-2.367-.374-1.9a7.479,7.479,0,0,1,2.712,2.09c0,.418-1.351.306-2.338-.194Z" transform="translate(-19.562 -84.47)" fill="#f4eccf" fill-rule="evenodd"/>
      <path id="Path_134233" data-name="Path 134233" d="M273.773,259.979c-2.163-1.026-3.825-3.743-3.476-5.677l.17-.924-1.273-.194c-3.067-.476-5.59-2.071-6.484-4.107a6.414,6.414,0,0,1,.053-5.007c1.108-2.358,4.554-4.574,7.6-4.89l1.624-.17-.545-1.269a8.972,8.972,0,0,1,.107-6.616c1.434-3.184,3.14-4.375,6.256-4.365q5.687.022,9.4,7.8c2.46,5.152,3.043,9.96,1.614,13.236a14.015,14.015,0,0,0-.53,1.847c-.783,3.49-4.55,7.962-8.365,9.926a6.859,6.859,0,0,1-6.144.413Z" transform="translate(-32.981 -45.709)" fill="#f4eccf" fill-rule="evenodd"/>
      <path id="Path_134234" data-name="Path 134234" d="M213.919,281.319a14.311,14.311,0,0,1-4.963-5.05c-.885-1.789-1.113-4.025-.505-4.982.622-.977,1.215-.452,1.22,1.079,0,2.017,1.448,4.506,4.627,7.967a7.043,7.043,0,0,1,1.22,1.585c0,.331.073.36-1.6-.6Z" transform="translate(-5.175 -68.325)" fill="#f4eccf" fill-rule="evenodd"/>
      <path id="Path_134235" data-name="Path 134235" d="M280.794,259.994a18,18,0,0,0,6.557-6.319,11.146,11.146,0,0,0,1.016-2.328,3.379,3.379,0,0,1,.365-1.118,13.806,13.806,0,0,0,.7-2.887,9.093,9.093,0,0,0-.121-4.365c-1.2-5.614-4.224-10.426-7.447-11.831a5.7,5.7,0,0,0-4.078-.029c-3.49,1.867-3.961,6.669-1.021,10.431,1.172,1.5,1.264,1.682,1.074,2.192-.209.564-1.123.549-2.25-.034a7.267,7.267,0,0,0-5.342.112,9.512,9.512,0,0,0-3.825,3.364,3.343,3.343,0,0,0,.165,3.291c.447.909.875,1.269,2.319,1.974a7.388,7.388,0,0,0,4.171.889c2.211.024,2.411.073,2.479.588a2.077,2.077,0,0,1-.6,1.312c-1.847,2.051.272,5.371,3.446,5.4a6.713,6.713,0,0,0,2.391-.637Z" transform="translate(-34.951 -47.761)" fill="#fff" fill-rule="evenodd"/>
      <path id="Path_134236" data-name="Path 134236" d="M296.728,244.607c-.457-.991-2.9-3.184-3.543-3.184-.2,0-.374-.248-.374-.549,0-.4.175-.549.676-.544.982,0,2.017.637,3.13,1.915a2.861,2.861,0,0,1,.977,2.217c.005,1.337-.287,1.39-.865.146Z" transform="translate(-48.696 -52.686)" fill="#f4eccf" fill-rule="evenodd"/>
      <path id="Path_134237" data-name="Path 134237" d="M344.367,240.447c-1.482-.267-2.134-.7-2.523-1.667-.715-1.779.525-3.072,3.908-4.073a11.768,11.768,0,0,1,5.24-.719c1.6.258,2.28.992,2.28,2.494,0,2.43-.685,2.98-4.739,3.821a8.133,8.133,0,0,1-4.166.146Z" transform="translate(-73.791 -49.387)" fill="#f4eccf" fill-rule="evenodd"/>
      <path id="Path_134238" data-name="Path 134238" d="M350.481,237.83a5.994,5.994,0,0,0-3.111.914c-2.012.977-2.411,1.5-1.546,2.027.7.423,3.957.321,5.916-.185l1.731-.447v-2.2l-2.047-.088c-.35-.015-.651-.024-.914-.024Z" transform="translate(-75.715 -51.402)" fill="#f4eccf" fill-rule="evenodd"/>
      <path id="Path_134239" data-name="Path 134239" d="M399.272,224.19c1.259-1.3,3.053-4.1,3.053-4.764,0-.16-.851.306-1.9,1.045a15.973,15.973,0,0,1-2.79,1.638l-.9.3v1.91c0,1.886,0,1.905.588,1.585a12.353,12.353,0,0,0,1.944-1.716Z" transform="translate(-102.099 -41.935)" fill="#fff" fill-rule="evenodd"/>
      <path id="Path_134240" data-name="Path 134240" d="M355.5,214.413a6.243,6.243,0,0,1-.574-1.487c-.739-2.673-2.4-3.383-3.957-1.7a7.428,7.428,0,0,0-1.235,1.915c-.749,1.881-2.362,1-1.716-.938a5.464,5.464,0,0,1,2.173-3.009,3.36,3.36,0,0,1,2.46-.773,2.689,2.689,0,0,1,2.318.831c1.759,1.6,2.664,5.25,1.351,5.439a.942.942,0,0,1-.822-.277Z" transform="translate(-76.989 -36.299)" fill="#f4eccf" fill-rule="evenodd"/>
      <path id="Path_134241" data-name="Path 134241" d="M399.177,216.736c.365-.413.219-.442-1.857-.369l-2.25.077.175,1.011a7.141,7.141,0,0,0,.292,1.22c.146.258,3.087-1.312,3.641-1.939Z" transform="translate(-101.24 -40.365)" fill="#fff" fill-rule="evenodd"/>
      <path id="Path_134242" data-name="Path 134242" d="M302.677,157.708a35.563,35.563,0,0,1,10.393-1.123l2.878.112.141-6.037c.078-3.32.107-6.076.068-6.12-.238-.263-2.742,3.48-3.777,5.643-1.361,2.853-2.09,3.5-2.99,2.654-.822-.768-2.552-4.472-3.32-7.092a8.857,8.857,0,0,0-.909-2.406c-.365,0-2.629,4.19-3.364,6.232-1.094,3.038-1.526,3.121-5.76,1.133a19.152,19.152,0,0,0-3.072-1.273,9.849,9.849,0,0,0,1.351,2.076c1.638,2.192,4.156,6.591,4.156,7.257,0,.394.087.394,1,0,.549-.238,1.993-.71,3.208-1.055Z" transform="translate(-48.772 -2.883)" fill="#f4eccf" fill-rule="evenodd"/>
    </g>
  </g>
</svg>
