<svg xmlns="http://www.w3.org/2000/svg" xmlns:xlink="http://www.w3.org/1999/xlink" width="80" height="40" viewBox="0 0 80 40">
  <defs>
    <clipPath id="clip-path">
      <rect id="Rectangle_17529" data-name="Rectangle 17529" width="80" height="40" transform="translate(0.001 0.445)"/>
    </clipPath>
  </defs>
  <g id="Mask_Group_49" data-name="Mask Group 49" transform="translate(-0.001 -0.445)" clip-path="url(#clip-path)">
    <g id="tool" transform="translate(9.408 0)">
      <g id="Group_46997" data-name="Group 46997" transform="translate(26.576 13.288)">
        <g id="Group_46996" data-name="Group 46996">
          <path id="Path_128479" data-name="Path 128479" d="M16.047,7.233H8.8c-.463.876-.769,1.538-.856,1.7h8.784A16.045,16.045,0,0,0,16.047,7.233Z" transform="translate(-7.949 -7.233)"/>
        </g>
      </g>
      <g id="Group_46999" data-name="Group 46999" transform="translate(20.327 17.505)">
        <g id="Group_46998" data-name="Group 46998">
          <path id="Path_128480" data-name="Path 128480" d="M9.514,8.494a8.509,8.509,0,0,0-2.245.328l-.247,1.4.157-.041.27-.068A6.647,6.647,0,0,1,9,9.943c.875,0,1.212.153,1.212.564a1.863,1.863,0,0,1-.068.4c-.292-.031-.561-.048-.763-.048-2.087,0-3.3.887-3.3,2.4a1.624,1.624,0,0,0,1.707,1.7,2.53,2.53,0,0,0,1.975-.752l-.045.645h1.571l.022-.169.023-.214.045-.316.067-.395.4-2.212a6.893,6.893,0,0,0,.135-1.233C11.983,9.128,11.131,8.494,9.514,8.494Zm-.942,5.149a.605.605,0,0,1-.673-.635c0-.629.539-.947,1.594-.947a3.552,3.552,0,0,1,.427.024C9.875,13.007,9.335,13.644,8.572,13.644Z" transform="translate(-6.08 -8.494)"/>
        </g>
      </g>
      <g id="Group_47001" data-name="Group 47001" transform="translate(11.235 16.215)">
        <g id="Group_47000" data-name="Group 47000">
          <path id="Path_128481" data-name="Path 128481" d="M9.984,8.108,7.9,12.849,7.761,8.108H4.82L3.36,15.763H5.066L6.188,9.915,6.5,15.763H8.21l2.581-5.886L9.668,15.763h1.885l1.482-7.655Z" transform="translate(-3.36 -8.108)"/>
        </g>
      </g>
      <g id="Group_47003" data-name="Group 47003" transform="translate(51.803 23.165)">
        <g id="Group_47002" data-name="Group 47002">
          <path id="Path_128482" data-name="Path 128482" d="M15.831,10.319a.176.176,0,0,0-.045-.107.258.258,0,0,0-.112-.024h-.18v.43h.09v-.168h.067l.068.168h.112l-.067-.186A.116.116,0,0,0,15.831,10.319Zm-.135.048a.137.137,0,0,1-.045.009h-.068v-.112h.047c.022,0,.067,0,.067.01.023.009.023.026.023.043A.049.049,0,0,1,15.7,10.367Z" transform="translate(-15.494 -10.187)"/>
        </g>
      </g>
      <g id="Group_47005" data-name="Group 47005" transform="translate(55.743 28.639)">
        <g id="Group_47004" data-name="Group 47004">
          <path id="Path_128483" data-name="Path 128483" d="M17.01,11.956a.171.171,0,0,0-.046-.107.259.259,0,0,0-.113-.024h-.179v.43h.09v-.169h.067l.068.169h.113l-.068-.187A.113.113,0,0,0,17.01,11.956ZM16.874,12a.141.141,0,0,1-.045.009h-.068V11.9h.045c.023,0,.068,0,.068.009.023.009.023.027.023.043S16.9,11.993,16.874,12Z" transform="translate(-16.673 -11.824)"/>
        </g>
      </g>
      <g id="Group_47007" data-name="Group 47007">
        <g id="Group_47006" data-name="Group 47006">
          <path id="Path_128484" data-name="Path 128484" d="M60.314,3.258H1.594A1.593,1.593,0,0,0,0,4.852V41.785a1.593,1.593,0,0,0,1.594,1.594h58.72a1.593,1.593,0,0,0,1.594-1.594V4.852A1.593,1.593,0,0,0,60.314,3.258ZM56.349,32.392a.477.477,0,0,1-.19.192.514.514,0,0,1-.511,0,.494.494,0,0,1-.191-.192.514.514,0,0,1-.068-.254.521.521,0,0,1,.069-.256.473.473,0,0,1,.192-.191.542.542,0,0,1,.253-.066.533.533,0,0,1,.251.066.466.466,0,0,1,.192.191.523.523,0,0,1,.068.256A.5.5,0,0,1,56.349,32.392ZM57.5,23.319A15.886,15.886,0,0,1,30.951,35.1,15.887,15.887,0,1,1,20.2,7.43h.1a15.825,15.825,0,0,1,10.652,4.1A15.888,15.888,0,0,1,57.5,23.312S57.5,23.315,57.5,23.319Z" transform="translate(0 -3.258)"/>
        </g>
      </g>
      <g id="Group_47009" data-name="Group 47009" transform="translate(28.374 9.918)">
        <g id="Group_47008" data-name="Group 47008">
          <path id="Path_128485" data-name="Path 128485" d="M12.637,6.225H9.619c-.406.548-.787,1.131-1.132,1.7h5.385A16.087,16.087,0,0,0,12.637,6.225Z" transform="translate(-8.487 -6.225)"/>
        </g>
      </g>
      <g id="Group_47011" data-name="Group 47011" transform="translate(32.25 17.504)">
        <g id="Group_47010" data-name="Group 47010">
          <path id="Path_128486" data-name="Path 128486" d="M13.26,9.965a12.392,12.392,0,0,1,1.37.091l.27-1.439a14.747,14.747,0,0,0-1.685-.123c-2.109,0-2.852.958-2.851,2.1,0,.785.449,1.327,1.459,1.735.762.31.876.4.876.687,0,.386-.335.561-1.076.561a6.08,6.08,0,0,1-1.708-.246l-.269,1.436.09.016.337.061a4.688,4.688,0,0,0,.516.056c.448.033.784.052,1.031.052,2.021,0,2.942-.657,2.942-2.076,0-.855-.381-1.354-1.347-1.733-.786-.315-.876-.386-.876-.677C12.339,10.136,12.652,9.965,13.26,9.965Z" transform="translate(-9.646 -8.494)"/>
        </g>
      </g>
      <g id="Group_47013" data-name="Group 47013" transform="translate(41.027 17.577)">
        <g id="Group_47012" data-name="Group 47012">
          <path id="Path_128487" data-name="Path 128487" d="M16.944,8.568c-.091-.022-.159-.034-.159-.037a1.391,1.391,0,0,0-.2-.015c-.607,0-1.056.276-1.639,1.012l.18-.945H13.417l-1.145,6.226h1.886c.674-3.807.965-4.475,1.862-4.475a2.015,2.015,0,0,1,.225.015l.225.046.676-1.758A1.646,1.646,0,0,0,16.944,8.568Z" transform="translate(-12.271 -8.516)"/>
        </g>
      </g>
      <g id="Group_47015" data-name="Group 47015" transform="translate(37.592 16.214)">
        <g id="Group_47014" data-name="Group 47014">
          <path id="Path_128488" data-name="Path 128488" d="M13.69,11.052h.966l.27-1.515h-.965l.27-1.429H12.367l-.876,4.753-.09.492-.113.613a4.949,4.949,0,0,0-.045.558c0,.883.516,1.368,1.482,1.368a4.9,4.9,0,0,0,1.347-.2l.247-1.381a1.681,1.681,0,0,1-.493.06c-.448,0-.652-.138-.652-.46a1.216,1.216,0,0,1,.023-.258Z" transform="translate(-11.244 -8.108)"/>
        </g>
      </g>
      <g id="Group_47017" data-name="Group 47017" transform="translate(51.465 22.896)">
        <g id="Group_47016" data-name="Group 47016">
          <path id="Path_128489" data-name="Path 128489" d="M15.888,10.107a.486.486,0,1,0,.494.484A.492.492,0,0,0,15.888,10.107Zm0,.856a.37.37,0,1,1,0-.74.37.37,0,0,1,0,.74Z" transform="translate(-15.393 -10.107)"/>
        </g>
      </g>
      <g id="Group_47019" data-name="Group 47019" transform="translate(45.113 17.466)">
        <g id="Group_47018" data-name="Group 47018">
          <path id="Path_128490" data-name="Path 128490" d="M17.2,8.483a3.494,3.494,0,0,0-3.7,3.7,2.667,2.667,0,0,0,2.987,2.871,3.315,3.315,0,0,0,3.659-2.989,4.324,4.324,0,0,0,.045-.773A2.712,2.712,0,0,0,17.2,8.483Zm.921,3.528a1.837,1.837,0,0,1-1.436,1.526c-.674.013-1.077-.556-1.077-1.4,0-1,.583-2.134,1.549-2.134.763,0,1.031.617,1.031,1.266A3.831,3.831,0,0,1,18.118,12.011Z" transform="translate(-13.493 -8.483)"/>
        </g>
      </g>
      <g id="Group_47021" data-name="Group 47021" transform="translate(26.57 17.489)">
        <g id="Group_47020" data-name="Group 47020">
          <path id="Path_128491" data-name="Path 128491" d="M13.534,12.289a6.07,6.07,0,0,0,.227-1.539,2.25,2.25,0,0,0-2.536-2.26A3.411,3.411,0,0,0,7.947,12.2c0,1.836,1.1,2.791,3.209,2.791a7.287,7.287,0,0,0,1.908-.251l.313-1.559a4.974,4.974,0,0,1-1.953.4c-1.077,0-1.639-.367-1.639-1.088a.69.69,0,0,1,.023-.2ZM11.2,9.914c.561,0,.876.295.876.8v.32l-2.088,0C10.169,10.309,10.6,9.914,11.2,9.914Z" transform="translate(-7.947 -8.489)"/>
        </g>
      </g>
      <g id="Group_47023" data-name="Group 47023" transform="translate(27.203 26.77)">
        <g id="Group_47022" data-name="Group 47022">
          <path id="Path_128492" data-name="Path 128492" d="M8.136,11.265a16.116,16.116,0,0,0,.938,1.7h5.637a15.821,15.821,0,0,0,.925-1.7Z" transform="translate(-8.136 -11.265)"/>
        </g>
      </g>
      <g id="Group_47025" data-name="Group 47025" transform="translate(29.324 30.103)">
        <g id="Group_47024" data-name="Group 47024">
          <path id="Path_128493" data-name="Path 128493" d="M8.771,12.262A15.521,15.521,0,0,0,10.4,14c.013-.012.027-.022.041-.035h0a15.88,15.88,0,0,0,1.613-1.7Z" transform="translate(-8.771 -12.262)"/>
        </g>
      </g>
    </g>
  </g>
</svg>
