<svg xmlns="http://www.w3.org/2000/svg" xmlns:xlink="http://www.w3.org/1999/xlink" width="80" height="40" viewBox="0 0 80 40">
  <defs>
    <clipPath id="clip-path">
      <rect id="Rectangle_17528" data-name="Rectangle 17528" width="80" height="40" transform="translate(0 0.445)"/>
    </clipPath>
  </defs>
  <g id="Mask_Group_48" data-name="Mask Group 48" transform="translate(0 -0.445)" clip-path="url(#clip-path)">
    <g id="money" transform="translate(8.005)">
      <g id="Group_46987" data-name="Group 46987" transform="translate(10.938 16.702)">
        <g id="Group_46986" data-name="Group 46986">
          <path id="Path_128474" data-name="Path 128474" d="M6.072,9.006a2.063,2.063,0,0,0-1.136-.257l-.428,0a.662.662,0,0,0-.622.5l-.394,1.727a.4.4,0,0,0,.4.508h.319a2.7,2.7,0,0,0,1.652-.442A1.441,1.441,0,0,0,6.448,9.8.884.884,0,0,0,6.072,9.006Z" transform="translate(-3.48 -8.749)"/>
        </g>
      </g>
      <g id="Group_46989" data-name="Group 46989" transform="translate(17.935 20.94)">
        <g id="Group_46988" data-name="Group 46988">
          <path id="Path_128475" data-name="Path 128475" d="M8.278,10.074c-.077,0-.668.07-.967.108a4.863,4.863,0,0,0-.861.2l-.554.384a1.014,1.014,0,0,0-.191.649l.252.5a1.536,1.536,0,0,0,.745.145,1.8,1.8,0,0,0,.683-.152l.513-.269.2-.275c.08-.32.247-1.033.266-1.122Z" transform="translate(-5.706 -10.074)"/>
        </g>
      </g>
      <g id="Group_46991" data-name="Group 46991">
        <g id="Group_46990" data-name="Group 46990">
          <path id="Path_128476" data-name="Path 128476" d="M61.422,3.53H1.623A1.637,1.637,0,0,0,0,5.182V43.476A1.638,1.638,0,0,0,1.623,45.13h59.8a1.637,1.637,0,0,0,1.623-1.652V5.182A1.637,1.637,0,0,0,61.422,3.53ZM15.051,23.71a6.1,6.1,0,0,1-3.724,1h-.373a.671.671,0,0,0-.626.5L9.88,27.19a.674.674,0,0,1-.627.507H7.947a.392.392,0,0,1-.394-.507l1.836-8.141a.688.688,0,0,1,.628-.508h2.728a9.064,9.064,0,0,1,1.542.124,3.327,3.327,0,0,1,1.136.425,1.955,1.955,0,0,1,.713.783,2.5,2.5,0,0,1,.251,1.2A3.13,3.13,0,0,1,15.051,23.71Zm8.106-1.039-.049.342-.953,4.2a.679.679,0,0,1-.561.5l-.018.007H20.361l0,0a.394.394,0,0,1-.349-.5v0l0-.008.049-.214-.007-.008-.492.331-.536.3-.632.22a3.581,3.581,0,0,1-.82.076,1.974,1.974,0,0,1-1.376-.477,1.655,1.655,0,0,1-.531-1.262,2.5,2.5,0,0,1,.373-1.391,2.571,2.571,0,0,1,1.124-.9,5.917,5.917,0,0,1,1.657-.464c.65-.1,1.185-.165,1.928-.213l.188-.118.023-.188a.613.613,0,0,0-.394-.6,3.179,3.179,0,0,0-1.188-.17,5.529,5.529,0,0,0-1.225.167,6.965,6.965,0,0,0-.781.235c-.1.035-.343.052-.252-.375l.16-.669a.777.777,0,0,1,.575-.616c.24-.055.278-.065.67-.126a10.19,10.19,0,0,1,1.581-.125,4.88,4.88,0,0,1,2.335.424,1.41,1.41,0,0,1,.745,1.315Zm2.1,8.267-1.353,0c-.281,0-.374-.227-.2-.507l1.158-2.055s.093-.117.01-.788c-.179-1.212-1.067-6.362-1.067-6.362a.391.391,0,0,1,.391-.507l1.171,0a.72.72,0,0,1,.711.522l.583,3.572.217,0c.182-.328,2.053-3.6,2.053-3.6a1.132,1.132,0,0,1,.822-.508s1.258,0,1.567,0c.464-.007-.036.759-.036.759l-5.206,8.964A1.091,1.091,0,0,1,25.257,30.938Zm13.526-7.193a6.147,6.147,0,0,1-3.733,1h-.373a.676.676,0,0,0-.627.5l-.442,1.979a.677.677,0,0,1-.627.5l-1.309,0a.392.392,0,0,1-.394-.5l1.837-8.145a.686.686,0,0,1,.625-.506l2.731,0a8.941,8.941,0,0,1,1.535.123,3.189,3.189,0,0,1,1.137.424,2.026,2.026,0,0,1,.719.786,2.592,2.592,0,0,1,.251,1.2A3.175,3.175,0,0,1,38.783,23.745Zm8.1-1.068-.048.344-.956,4.193a.678.678,0,0,1-.557.5l-.018.007H44.092l0-.007a.386.386,0,0,1-.348-.5l0,0,.006,0,.044-.214-.008-.01-.489.335-.539.3-.631.217a3.692,3.692,0,0,1-.818.078,1.985,1.985,0,0,1-1.375-.481,1.644,1.644,0,0,1-.535-1.263,2.48,2.48,0,0,1,.374-1.388,2.6,2.6,0,0,1,1.123-.9,6.008,6.008,0,0,1,1.66-.464c.645-.1,1.181-.165,1.929-.211l.188-.12.02-.188a.609.609,0,0,0-.4-.6,3.147,3.147,0,0,0-1.185-.172,5.73,5.73,0,0,0-1.227.167,7.364,7.364,0,0,0-.776.235c-.109.033-.345.052-.256-.375l.16-.668a.77.77,0,0,1,.574-.616,6.756,6.756,0,0,1,.672-.124,9.763,9.763,0,0,1,1.581-.128,4.9,4.9,0,0,1,2.334.426,1.407,1.407,0,0,1,.747,1.313Zm4.186-3.531-1.75,8.07-.061.1a.666.666,0,0,1-.565.411H47.479l-.022-.028a.378.378,0,0,1-.327-.474l0-.006.052-.233,1.636-7.571.058-.264.066-.1a.665.665,0,0,1,.563-.4h1.169a.392.392,0,0,1,.4.5Zm2.32-.873h-.438v.592l0,.159.03.107.069.068.134.022L53.3,19.2l.081-.025h.01v.194l-.131.026-.124.01-.3-.108-.1-.341v-.689H52.59v-.184h.147v-.369h.215v.369h.438Zm2.115.272v.838h-.211v-.739l-.013-.158-.028-.125-.074-.074-.142-.026-.177.047-.182.117,0,.064,0,.068v.829h-.212v-.739l-.009-.16-.03-.124-.071-.074-.144-.026-.175.044-.177.113v.966h-.21V18.09h.21v.144l.2-.132.21-.048.221.053.136.155.234-.16.229-.048.309.128.1.361h0Z" transform="translate(0 -3.53)"/>
        </g>
      </g>
      <g id="Group_46993" data-name="Group 46993" transform="translate(41.667 20.947)">
        <g id="Group_46992" data-name="Group 46992">
          <path id="Path_128477" data-name="Path 128477" d="M15.825,10.076c-.077,0-.665.069-.96.108a4.653,4.653,0,0,0-.861.2,1.326,1.326,0,0,0-.559.384,1.042,1.042,0,0,0-.188.65l.256.5a1.471,1.471,0,0,0,.743.147,1.807,1.807,0,0,0,.679-.151l.51-.269.21-.275c.078-.324.248-1.034.261-1.123Z" transform="translate(-13.257 -10.076)"/>
        </g>
      </g>
      <g id="Group_46995" data-name="Group 46995" transform="translate(34.659 16.732)">
        <g id="Group_46994" data-name="Group 46994">
          <path id="Path_128478" data-name="Path 128478" d="M13.62,9.017a2.066,2.066,0,0,0-1.134-.258l-.425,0a.671.671,0,0,0-.625.506l-.4,1.726a.4.4,0,0,0,.4.507h.325a2.748,2.748,0,0,0,1.65-.436A1.473,1.473,0,0,0,14,9.809.906.906,0,0,0,13.62,9.017Z" transform="translate(-11.028 -8.759)"/>
        </g>
      </g>
    </g>
  </g>
</svg>
