<svg xmlns="http://www.w3.org/2000/svg" xmlns:xlink="http://www.w3.org/1999/xlink" width="37" height="37" viewBox="0 0 37 37">
  <defs>
    <clipPath id="clip-path">
      <rect id="Rectangle_17521" data-name="Rectangle 17521" width="37" height="37" transform="translate(0.083)"/>
    </clipPath>
  </defs>
  <g id="Mask_Group_42" data-name="Mask Group 42" transform="translate(-0.083)" clip-path="url(#clip-path)">
    <g id="user" transform="translate(2.923)">
      <path id="Path_128448" data-name="Path 128448" d="M15.6,17.941a8.68,8.68,0,0,0,6.343-2.628A8.681,8.681,0,0,0,24.571,8.97a8.681,8.681,0,0,0-2.628-6.343A8.682,8.682,0,0,0,15.6,0,8.68,8.68,0,0,0,9.258,2.628,8.68,8.68,0,0,0,6.629,8.97a8.68,8.68,0,0,0,2.628,6.343A8.683,8.683,0,0,0,15.6,17.941ZM10.8,4.171a6.484,6.484,0,0,1,4.8-1.989,6.485,6.485,0,0,1,4.8,1.989,6.485,6.485,0,0,1,1.989,4.8,6.485,6.485,0,0,1-1.989,4.8,6.485,6.485,0,0,1-4.8,1.989,6.486,6.486,0,0,1-4.8-1.989,6.484,6.484,0,0,1-1.989-4.8,6.485,6.485,0,0,1,1.989-4.8Zm0,0" transform="translate(-0.298 0)"/>
      <path id="Path_128449" data-name="Path 128449" d="M31,29.487a22.158,22.158,0,0,0-.3-2.353,18.542,18.542,0,0,0-.579-2.366,11.688,11.688,0,0,0-.973-2.207,8.319,8.319,0,0,0-1.467-1.912,6.467,6.467,0,0,0-2.107-1.324,7.282,7.282,0,0,0-2.69-.487,2.73,2.73,0,0,0-1.458.618c-.437.285-.948.615-1.519.979a8.7,8.7,0,0,1-1.965.866,7.631,7.631,0,0,1-4.807,0,8.677,8.677,0,0,1-1.964-.866c-.565-.361-1.077-.691-1.52-.98a2.727,2.727,0,0,0-1.457-.618,7.272,7.272,0,0,0-2.69.487A6.462,6.462,0,0,0,3.394,20.65a8.32,8.32,0,0,0-1.466,1.911,11.71,11.71,0,0,0-.973,2.207,18.586,18.586,0,0,0-.579,2.366,22.006,22.006,0,0,0-.3,2.354C.025,30.2,0,30.94,0,31.687a6.185,6.185,0,0,0,1.837,4.679A6.612,6.612,0,0,0,6.57,38.093H24.5a6.612,6.612,0,0,0,4.733-1.726,6.182,6.182,0,0,0,1.837-4.679c0-.75-.026-1.491-.075-2.2Zm-3.267,5.3A4.452,4.452,0,0,1,24.5,35.91H6.57a4.452,4.452,0,0,1-3.228-1.125,4.038,4.038,0,0,1-1.159-3.1c0-.7.023-1.387.069-2.048a19.849,19.849,0,0,1,.273-2.12,16.392,16.392,0,0,1,.509-2.086,9.533,9.533,0,0,1,.792-1.794A6.167,6.167,0,0,1,4.9,22.227a4.29,4.29,0,0,1,1.4-.872,5.022,5.022,0,0,1,1.719-.332c.076.041.213.118.433.262.449.292.966.626,1.538.991a10.814,10.814,0,0,0,2.467,1.1,9.812,9.812,0,0,0,6.15,0,10.826,10.826,0,0,0,2.468-1.1c.585-.374,1.088-.7,1.536-.991.221-.143.357-.221.433-.262a5.026,5.026,0,0,1,1.719.332,4.3,4.3,0,0,1,1.4.872,6.15,6.15,0,0,1,1.078,1.413,9.5,9.5,0,0,1,.792,1.794,16.354,16.354,0,0,1,.509,2.086,20.016,20.016,0,0,1,.273,2.12h0c.046.659.07,1.348.07,2.048a4.038,4.038,0,0,1-1.159,3.1Zm0,0" transform="translate(0 -0.848)"/>
    </g>
  </g>
</svg>
