<svg xmlns="http://www.w3.org/2000/svg" xmlns:xlink="http://www.w3.org/1999/xlink" width="81" height="40" viewBox="0 0 81 40">
  <defs>
    <clipPath id="clip-path">
      <rect id="Rectangle_17530" data-name="Rectangle 17530" width="81" height="40" transform="translate(0 0.445)"/>
    </clipPath>
  </defs>
  <g id="Mask_Group_50" data-name="Mask Group 50" transform="translate(0 -0.445)" clip-path="url(#clip-path)">
    <g id="symbols" transform="translate(9.649 0)">
      <g id="Group_47027" data-name="Group 47027">
        <g id="Group_47026" data-name="Group 47026">
          <path id="Path_128494" data-name="Path 128494" d="M60.314,3.258H1.594A1.593,1.593,0,0,0,0,4.852V41.785a1.593,1.593,0,0,0,1.594,1.594h58.72a1.593,1.593,0,0,0,1.594-1.594V4.852A1.593,1.593,0,0,0,60.314,3.258ZM4.793,15.382H11.4a1.715,1.715,0,0,1,1.857,1.27l1.437,6.911C13.283,19.949,9.88,16.941,4.738,15.7Zm7.995,15.762L8.972,18.105a16.736,16.736,0,0,1,5.9,6.481l.445,1.61,4.174-10.664H24.01L17.3,31.141Zm14.541.011H23.067l2.665-15.639H30Zm7.416.235A13.491,13.491,0,0,1,30,30.555l.6-3.5.549.249a8.931,8.931,0,0,0,4.013.821c1.224,0,2.536-.479,2.548-1.527.008-.685-.549-1.174-2.209-1.941-1.618-.748-3.76-2-3.733-4.247.023-3.039,2.991-5.16,7.2-5.16a11,11,0,0,1,3.818.657l-.575,3.39-.385-.181a7.864,7.864,0,0,0-3.19-.6c-1.668,0-2.442.695-2.442,1.345-.009.732.9,1.214,2.394,1.94,2.459,1.116,3.6,2.47,3.58,4.248C42.135,29.294,39.227,31.39,34.745,31.39Zm18.469-.228s-.389-1.8-.518-2.343l-5.459-.007c-.166.422-.9,2.35-.9,2.35H41.867L48.194,16.83a2.122,2.122,0,0,1,2.233-1.3H53.72l3.449,15.628Z" transform="translate(0 -3.258)"/>
        </g>
      </g>
      <g id="Group_47029" data-name="Group 47029" transform="translate(48.463 16.492)">
        <g id="Group_47028" data-name="Group 47028">
          <path id="Path_128495" data-name="Path 128495" d="M17.047,9.539,16.76,8.191c-.217.589-.591,1.535-.567,1.493,0,0-1.347,3.471-1.7,4.371h3.539C17.864,13.272,17.047,9.539,17.047,9.539Z" transform="translate(-14.495 -8.191)"/>
        </g>
      </g>
    </g>
  </g>
</svg>
